<?xml version="1.0" encoding="utf-8"?>
<!-- Generator: Adobe Adobe Illustrator 24.2.0, SVG Export Plug-In . SVG Version: 6.00 Build 0)  -->
<svg version="1.1" xmlns="http://www.w3.org/2000/svg" xmlns:xlink="http://www.w3.org/1999/xlink" x="0px" y="0px" width="1000px"
	 height="1000px" viewBox="0 0 1000 1000" style="enable-background:new 0 0 1000 1000;" xml:space="preserve">
<style type="text/css">
	.st0{fill:#FFFFFF;}
</style>
<g id="Vector_layer_5_">
	<path class="st0" d="M921.12,469.79c9.43,27.14,6.83,57.34-3.75,84.31c-0.39,1.02-0.8,2.02-1.23,3.03
		c-1.11,0.03-2.23,0.06-3.34,0.09c-3.22,0.09-6.43,0.18-9.65,0.27c-4.52,0.13-9.04,0.25-13.56,0.38c-0.14,16.8-0.29,33.6-0.43,50.4
		c-0.02,1.95-0.03,3.9-0.05,5.85c-0.02,1.65-0.03,3.3-0.04,4.95c-0.01,0.02-0.02,0.03-0.04,0.05c-0.21,0.27-0.42,0.53-0.63,0.79
		c-0.18,0.23-0.37,0.46-0.56,0.69c-0.59,0.71-1.19,1.42-1.8,2.12c-4.93,5.66-10.48,10.75-16.41,15.37c-0.01,0-0.01,0.01-0.02,0.02
		c-0.33,0.25-0.66,0.51-0.98,0.76c-1.01,0.77-2.03,1.52-3.05,2.27c-1.25,0.02-2.5,0.03-3.76,0.04c-0.53,0.01-1.05,0.01-1.58,0.02
		c-9.56,0.11-19.12,0.18-28.69,0.16c-4.57,0.05-9.16-0.05-13.76-0.22c-0.09,3.3-0.18,6.59-0.27,9.89c-0.1,3.93-0.2,7.86-0.3,11.79
		c-0.04,1.34-0.07,2.68-0.1,4.02c-0.36,0.31-0.73,0.62-1.09,0.93c-0.57,0.48-1.14,0.95-1.72,1.4c-3.78,3.03-7.76,5.79-11.86,8.35
		c-1.63,1.02-3.27,2-4.94,2.96c-2.04-0.02-4.08-0.03-6.11-0.05c0,0,0,0,0,0c-8.21-0.06-16.42-0.12-24.62-0.2
		c-13.36-0.11-26.72-0.21-40.09-0.32c-11.77-0.09-23.54-0.19-35.31-0.28c-1.59-0.02-3.18-0.03-4.77-0.04c-0.2,0-0.4,0-0.61,0
		c-0.36-0.25-0.73-0.5-1.09-0.76c-0.72-0.5-1.43-1.01-2.12-1.52c-0.35-0.25-0.7-0.5-1.04-0.76c-3.29-2.42-6.26-4.79-8.7-6.9
		c-8.02-6.88-14.89-14.82-21.02-23.33c-0.26-0.36-0.52-0.73-0.78-1.09c-0.21-0.29-0.41-0.58-0.62-0.87
		c-0.57-0.81-1.13-1.62-1.68-2.44c-0.05-1.85-0.11-3.7-0.16-5.55c-0.28-9.22-0.55-18.44-0.82-27.67
		c-0.52-17.82-1.04-35.64-1.57-53.46c-13.54,0.03-27.08,0.05-40.62,0.07c-16.83,0.03-33.66,0.06-50.48,0.09
		c-17,0.03-34,0.05-50.99,0.09c-17.6,0.03-35.2,0.05-52.8,0.09c-17.91,0.03-35.83,0.05-53.74,0.09c-9.36,0.02-18.71,0.04-28.07,0.05
		c-0.15,18.55-0.3,37.09-0.46,55.64c-0.09,10.07-0.17,20.15-0.25,30.23c0,0,0,0,0,0c-0.02,1.91-0.03,3.82-0.05,5.73
		c-0.32,0.49-0.65,0.98-0.98,1.47c-0.26,0.39-0.52,0.77-0.79,1.15c-0.41,0.59-0.82,1.18-1.25,1.76c-0.5,0.7-1.01,1.39-1.53,2.09
		c-3.28,4.36-6.82,8.51-10.58,12.46c-2.41,2.53-4.91,4.96-7.48,7.33c-3.9,3.58-7.98,6.97-12.2,10.18c-1.86,1.41-3.73,2.78-5.48,4
		c-1.84,1.29-3.7,2.56-5.59,3.79c-1.61,1.05-3.24,2.09-4.88,3.09c-2.02,0.04-4.04,0.08-6.07,0.12c-7.17,0.14-14.35,0.27-21.52,0.41
		c-17.33,0.34-34.67,0.67-52,1c-3.79,0.07-7.59,0.14-11.38,0.22c-1.71,0.03-3.41,0.07-5.12,0.1c-0.68-0.48-1.36-0.96-2.03-1.45
		c-0.57-0.41-1.13-0.82-1.69-1.23c-0.11-0.08-0.21-0.16-0.32-0.24c-1.94-1.43-3.86-2.89-5.76-4.38c-3.48-2.73-6.9-5.55-10.25-8.45
		c-0.76-0.66-1.52-1.33-2.28-2c-0.43-0.38-0.86-0.77-1.29-1.15c-0.03-0.02-0.05-0.05-0.08-0.07c-0.01-0.01-0.02-0.02-0.02-0.02
		c-0.41-0.36-0.81-0.72-1.21-1.09c-0.78-0.71-1.56-1.42-2.33-2.14c-3.37-3.13-6.66-6.35-9.86-9.66c-0.98-1.01-1.95-2.03-2.91-3.05
		c-0.05-0.05-0.09-0.1-0.14-0.14c-0.36-0.39-0.73-0.78-1.09-1.17c-0.45-0.49-0.9-0.98-1.34-1.47c-0.15,0-0.3,0-0.45,0.01
		c-7.74,0.16-15.48,0.32-23.22,0.48c-1.56,0.03-3.12,0.06-4.68,0.09c-0.07,0-0.15,0-0.23,0c-0.67-0.48-1.34-0.97-2-1.47
		c-0.38-0.29-0.76-0.57-1.14-0.86c-0.25-0.2-0.5-0.39-0.75-0.59c-12.04-9.44-21.76-21.38-29.66-34.45
		c-0.52-0.87-1.04-1.74-1.55-2.61c-0.25-0.44-0.51-0.88-0.76-1.32s-0.5-0.88-0.74-1.32c0,0,0,0,0-0.01
		c-0.02-2.12-0.04-4.24-0.05-6.36c-0.09-9.88-0.17-19.76-0.26-29.64c-0.06-7.29-0.13-14.59-0.19-21.88c-2.04,0-4.08,0-6.12-0.01
		c-6.74-0.01-13.48-0.02-20.21-0.03c-2.16,0-4.32-0.01-6.48-0.01c-1.1,0-2.2,0-3.3,0c-0.43-0.92-0.83-1.85-1.23-2.79
		c-0.03-0.07-0.06-0.14-0.09-0.21c-2.11-5.07-3.77-10.32-5.02-15.68c-1.18-5.02-1.98-10.12-2.45-15.26
		c-0.47-5.17-0.59-10.37-0.37-15.56c0.12-2.8,0.34-5.59,0.65-8.37c0.08-0.68,0.16-1.36,0.25-2.03c0.04-0.35,0.09-0.7,0.14-1.04
		c0.02-0.17,0.05-0.33,0.07-0.5c0.02-0.13,0.04-0.26,0.06-0.39c0.02-0.16,0.05-0.32,0.07-0.48c0.84-5.54,2.11-11,3.76-16.35
		c0.8-2.57,1.7-5.11,2.7-7.61c0.1-0.25,0.2-0.5,0.3-0.75c0.13-0.32,0.26-0.63,0.39-0.95c0.18-0.43,0.37-0.87,0.56-1.3
		c1.1,0,2.2-0.01,3.29-0.02c0.86,0,1.72-0.01,2.58-0.01c7.29-0.03,14.58-0.06,21.88-0.09c2.61-0.01,5.22-0.02,7.84-0.04
		c-0.02-3.54-0.05-7.07-0.07-10.61c-0.09-16-0.22-32-0.33-48.01c0,0,0,0,0,0c-0.01-1.75-0.02-3.51-0.04-5.27
		c0.28-0.41,0.55-0.83,0.84-1.24c0.58-0.85,1.18-1.7,1.78-2.54c7.45-10.42,16.31-19.86,26.17-28.01c0.29-0.25,0.59-0.49,0.88-0.73
		c0.04-0.03,0.08-0.07,0.12-0.1c0.6-0.48,1.2-0.97,1.8-1.45c0.34-0.26,0.67-0.52,1-0.78c1.7-0.02,3.4-0.05,5.1-0.08
		c6.77-0.1,13.54-0.2,20.32-0.3c2.21-0.04,4.42-0.07,6.63-0.1c-0.03-4.77-0.05-9.55-0.08-14.32c0-0.6-0.01-1.2-0.01-1.8
		c-0.01-0.84-0.01-1.68-0.02-2.52c0.3-0.3,0.59-0.6,0.86-0.88c0.07-0.07,0.15-0.15,0.22-0.22c0.09-0.09,0.17-0.18,0.25-0.25
		c0.08-0.09,0.16-0.17,0.25-0.25c0.32-0.32,0.62-0.62,0.89-0.88c0.07-0.07,0.13-0.13,0.2-0.2c0.05-0.05,0.11-0.11,0.16-0.16
		c0.05-0.05,0.09-0.09,0.14-0.14c0.19-0.19,0.36-0.36,0.49-0.5c4.22-4.18,8.86-7.8,13.79-10.97c1.66-1.07,3.35-2.08,5.07-3.05
		c2.18-0.02,4.37-0.04,6.55-0.06c8.99-0.09,17.98-0.18,26.96-0.26c14.3-0.14,28.61-0.28,42.91-0.41c13.83-0.13,27.66-0.27,41.48-0.4
		c2.69-0.03,5.38-0.05,8.06-0.08c1.78-0.02,3.55-0.04,5.33-0.05c1.39,0.96,2.77,1.95,4.14,2.96c10.33,7.67,19.64,16.74,27.64,26.8
		c1.98,2.54,3.86,5.15,5.64,7.83c0.27,0.4,0.53,0.8,0.8,1.21c0.2,0.32,0.41,0.63,0.61,0.95c0.06,0.09,0.11,0.18,0.17,0.27
		c0.21,0.34,0.43,0.68,0.64,1.02c0.25,0.4,0.5,0.81,0.75,1.21c-0.02,1.96-0.03,3.91-0.05,5.87c-0.14,16.27-0.27,32.54-0.41,48.8
		c-0.08,9.82-0.16,19.63-0.25,29.45c0.26,0,0.53,0,0.79,0c17.79,0.03,35.58,0.05,53.37,0.09c17.09,0.03,34.17,0.05,51.25,0.08
		c15.78,0.02,31.55,0.05,47.32,0.07c15.48,0.03,30.95,0.05,46.43,0.08c16.27,0.03,32.53,0.05,48.79,0.08
		c8.39,0.02,16.78,0.03,25.17,0.05c-0.44-15.21-0.89-30.41-1.33-45.62c-0.36-12.24-0.71-24.48-1.07-36.73
		c-0.05-1.83-0.11-3.66-0.16-5.49c0.96-1.5,1.91-2.97,2.87-4.39c9.91-14.74,19.86-25.15,32.03-34.64c0.33-0.26,0.66-0.52,1-0.77
		c0.31-0.24,0.62-0.47,0.93-0.71c0.7-0.53,1.41-1.06,2.12-1.59c1.79-0.03,3.59-0.06,5.38-0.1c9.58-0.17,19.16-0.34,28.75-0.52
		c14.39-0.26,28.79-0.52,43.19-0.78c12.19-0.22,24.37-0.44,36.56-0.66c1.47-0.02,2.95-0.05,4.42-0.08c0.45-0.01,0.9-0.02,1.35-0.02
		c0.55,0.35,1.11,0.7,1.65,1.05c0.09,0.06,0.17,0.11,0.26,0.17c0.48,0.31,0.96,0.63,1.43,0.95c0.36,0.25,0.73,0.5,1.09,0.75h0
		c6.68,4.56,12.92,9.73,18.52,15.49c0.05,0.05,0.09,0.09,0.14,0.14c0.45,0.46,0.89,0.93,1.34,1.41c0.01,0.01,0.02,0.02,0.02,0.02
		c0.48,0.51,0.95,1.03,1.42,1.55c-0.04,1.45-0.07,2.89-0.11,4.34c-0.11,4.45-0.23,8.91-0.34,13.36c-0.12,4.75-0.25,9.51-0.37,14.27
		c2.18-0.02,4.37-0.05,6.55-0.08c7.09-0.09,14.18-0.25,21.27-0.43c3.25-0.09,6.5-0.18,9.75-0.26c1.5-0.04,3-0.08,4.5-0.11
		c1.05,0.91,2.09,1.84,3.11,2.77h0c1.12,1.02,2.23,2.04,3.32,3.07c5.3,5.02,10.24,10.42,14.68,16.19c0.38,0.49,0.75,0.98,1.12,1.48
		c0.21,0.28,0.43,0.57,0.63,0.85c0.41,0.56,0.81,1.12,1.21,1.68c-0.02,1.74-0.03,3.47-0.04,5.21c-0.07,8.34-0.14,16.68-0.21,25.02
		c-0.09,10.45-0.17,20.9-0.26,31.35c4.32-0.12,8.63-0.25,12.95-0.38c4.52-0.12,9.03-0.26,13.55-0.39c0.54-0.02,1.07-0.03,1.6-0.05
		c0.53-0.02,1.07-0.03,1.6-0.05c0.18,0.48,0.36,0.95,0.54,1.43c0.03,0.07,0.05,0.14,0.08,0.22c0.16,0.42,0.3,0.85,0.45,1.27
		C921.11,469.75,921.12,469.77,921.12,469.79z"/>
</g>
<g id="Vector_layer_4_">
	<path class="st0" d="M675.34,678.9c-10.33-7.67-19.64-16.74-27.64-26.8c-1.98-2.54-3.86-5.15-5.64-7.83
		c-0.27-0.4-0.53-0.8-0.8-1.21c-0.2-0.32-0.41-0.63-0.61-0.95c-0.06-0.09-0.11-0.18-0.17-0.27c-0.21-0.34-0.43-0.68-0.64-1.02
		c-0.25-0.4-0.5-0.81-0.75-1.21c0.02-1.96,0.03-3.91,0.05-5.87c0.14-16.27,0.27-32.54,0.41-48.8c0.08-9.82,0.16-19.63,0.25-29.45
		c-0.26,0-0.53,0-0.79,0c-3.5-0.01-6.99-0.01-10.48-0.02V459.4h12.42v-17.26h-0.21c0.11-12.97,0.21-25.93,0.32-38.9
		c0.09-10.07,0.17-20.15,0.25-30.23c0,0,0,0,0,0c0.02-1.91,0.03-3.82,0.05-5.73c0.32-0.49,0.65-0.98,0.98-1.47
		c0.26-0.39,0.52-0.77,0.79-1.15c0.41-0.59,0.82-1.18,1.25-1.76c0.5-0.7,1.01-1.39,1.53-2.09c3.28-4.36,6.82-8.51,10.58-12.46
		c2.41-2.53,4.91-4.96,7.48-7.33c3.9-3.58,7.98-6.97,12.2-10.18c1.86-1.41,3.73-2.78,5.48-4c1.84-1.29,3.7-2.56,5.59-3.79
		c1.61-1.05,3.24-2.09,4.88-3.09c2.02-0.04,4.04-0.08,6.07-0.12c7.17-0.14,14.35-0.27,21.52-0.41c17.33-0.34,34.67-0.67,52-1
		c3.79-0.07,7.59-0.14,11.38-0.22c1.71-0.03,3.41-0.07,5.12-0.1c0.68,0.48,1.36,0.96,2.03,1.45c0.57,0.41,1.13,0.82,1.69,1.23
		c0.11,0.08,0.21,0.16,0.32,0.24c1.94,1.43,3.86,2.89,5.76,4.38c3.48,2.73,6.9,5.55,10.25,8.45c0.76,0.66,1.52,1.33,2.28,2
		c0.43,0.38,0.86,0.77,1.29,1.15c0.03,0.02,0.05,0.05,0.08,0.07c0.01,0.01,0.02,0.02,0.02,0.02c0.41,0.36,0.81,0.72,1.21,1.09
		c0.78,0.71,1.56,1.42,2.33,2.14c3.37,3.13,6.66,6.35,9.86,9.66c0.98,1.01,1.95,2.03,2.91,3.05c0.05,0.05,0.09,0.1,0.14,0.14
		c0.36,0.39,0.73,0.78,1.09,1.17c0.45,0.49,0.9,0.98,1.34,1.47c0.15,0,0.3,0,0.45-0.01c7.74-0.16,15.48-0.32,23.22-0.48
		c1.56-0.03,3.12-0.06,4.68-0.09c0.07,0,0.15,0,0.23,0c0.67,0.48,1.34,0.97,2,1.47c0.38,0.29,0.76,0.57,1.14,0.86
		c0.25,0.2,0.5,0.39,0.75,0.59c12.04,9.44,21.76,21.38,29.66,34.45c0.52,0.87,1.04,1.74,1.55,2.61c0.25,0.44,0.51,0.88,0.76,1.32
		s0.5,0.88,0.74,1.32c0,0,0,0,0,0.01c0.02,2.12,0.04,4.24,0.05,6.36c0.09,9.88,0.17,19.76,0.26,29.64
		c0.06,7.29,0.13,14.59,0.19,21.88c2.04,0,4.08,0,6.12,0.01c6.74,0.01,13.48,0.02,20.21,0.03c2.16,0,4.32,0.01,6.48,0.01
		c1.1,0,2.2,0,3.3,0c0.43,0.92,0.83,1.85,1.23,2.79c0.03,0.07,0.06,0.14,0.09,0.21c2.11,5.07,3.77,10.32,5.02,15.68
		c1.18,5.02,1.98,10.12,2.45,15.26c0.47,5.17,0.59,10.38,0.37,15.56c-0.12,2.8-0.34,5.59-0.65,8.37c-0.08,0.68-0.16,1.36-0.25,2.03
		c-0.04,0.35-0.09,0.7-0.14,1.04c-0.02,0.17-0.05,0.33-0.07,0.5c-0.02,0.13-0.04,0.26-0.06,0.39c-0.02,0.16-0.05,0.32-0.07,0.48
		c-0.84,5.54-2.11,11-3.76,16.35c-0.8,2.57-1.7,5.11-2.7,7.61c-0.1,0.25-0.2,0.5-0.3,0.75c-0.13,0.32-0.26,0.63-0.39,0.95
		c-0.18,0.43-0.37,0.87-0.56,1.3c-1.1,0-2.2,0.01-3.29,0.02c-0.86,0-1.72,0.01-2.58,0.01c-7.29,0.03-14.58,0.06-21.88,0.09
		c-2.61,0.01-5.22,0.02-7.84,0.04c0.02,3.54,0.05,7.07,0.07,10.61c0.09,16,0.22,32,0.33,48.01c0,0,0,0,0,0
		c0.01,1.75,0.02,3.51,0.04,5.27c-0.28,0.41-0.55,0.83-0.84,1.24c-0.58,0.85-1.18,1.7-1.78,2.54
		c-7.45,10.42-16.31,19.86-26.17,28.01c-0.29,0.25-0.59,0.49-0.88,0.73c-0.04,0.03-0.08,0.07-0.12,0.1c-0.6,0.48-1.2,0.97-1.8,1.45
		c-0.34,0.26-0.67,0.52-1,0.78c-1.7,0.02-3.4,0.05-5.1,0.08c-6.77,0.1-13.54,0.2-20.32,0.3c-2.21,0.04-4.42,0.07-6.63,0.1
		c0.03,4.77,0.05,9.55,0.08,14.32c0,0.6,0.01,1.2,0.01,1.8c0.01,0.84,0.01,1.68,0.02,2.52c-0.3,0.3-0.59,0.6-0.86,0.88
		c-0.07,0.07-0.15,0.15-0.22,0.22c-0.09,0.09-0.17,0.18-0.25,0.25c-0.08,0.09-0.16,0.17-0.25,0.25c-0.32,0.32-0.62,0.62-0.89,0.88
		c-0.07,0.07-0.13,0.13-0.2,0.2c-0.05,0.05-0.11,0.11-0.16,0.16c-0.05,0.05-0.09,0.09-0.14,0.14c-0.19,0.19-0.36,0.36-0.49,0.5
		c-4.22,4.18-8.86,7.8-13.79,10.97c-1.66,1.07-3.35,2.08-5.07,3.05c-2.18,0.02-4.37,0.04-6.55,0.06
		c-8.99,0.09-17.98,0.18-26.96,0.26c-14.3,0.14-28.61,0.28-42.91,0.41c-13.83,0.13-27.66,0.27-41.48,0.4
		c-2.69,0.03-5.38,0.05-8.06,0.08c-1.78,0.02-3.55,0.04-5.33,0.05C678.09,680.9,676.71,679.91,675.34,678.9z"/>
</g>
<g id="Vector_layer_3_">
	<path d="M857.6,484.31c0.01,0,0.02,0,0.02-0.01c-0.02,0-0.03,0.01-0.05,0.01C857.58,484.31,857.59,484.31,857.6,484.31z
		 M916.16,505.66c0.33,4.73-0.08,9.5-1.12,14.13c-1.09,4.84-2.84,9.51-5.1,13.92c-0.13,0.25-0.26,0.5-0.3,0.57
		c-0.48,0.92-0.99,1.83-1.52,2.73c-0.61,1.04-1.25,2.06-1.91,3.07c-1.24,0.05-2.48,0.09-3.72,0.14v0c-0.23,0.01-0.47,0.02-0.7,0.03
		c-4.84,0.17-9.69,0.35-14.54,0.52c-4.48,0.16-8.96,0.32-13.45,0.46c0,0.27,0,0.54-0.01,0.81c-0.09,11.69-0.19,23.38-0.29,35.07
		c-0.09,11.34-0.18,22.67-0.27,34.01c0,0.43-0.01,0.86-0.01,1.29c-0.01,0.96-0.02,1.92-0.02,2.88c-0.26,0.29-0.52,0.58-0.79,0.88
		c-0.21,0.23-0.42,0.45-0.62,0.68c-0.04,0.05-0.09,0.09-0.13,0.14c-0.19,0.21-0.39,0.41-0.58,0.62c-0.3,0.32-0.6,0.63-0.9,0.94
		c-2.94,3.02-6.09,5.86-9.24,8.46h0c-0.73,0.61-1.46,1.2-2.19,1.77c-0.21,0.17-0.42,0.33-0.64,0.5c-0.31,0.25-0.62,0.49-0.94,0.73
		c-1.65,0-3.3,0-4.95-0.01c-0.65,0-1.3,0-1.95,0c-7.43-0.02-14.86-0.02-22.29-0.04c-7.48-0.02-14.95-0.02-22.43-0.04
		c-1.43,0-2.85-0.01-4.28-0.01c0.06,3.83,0.13,7.66,0.2,11.49c0.02,1.47,0.05,2.94,0.07,4.41c0.02,1.49,0.05,2.97,0.07,4.46
		c-0.72,0.77-1.46,1.53-2.23,2.27c-0.16,0.15-0.32,0.3-0.48,0.46c-0.08,0.08-0.16,0.16-0.25,0.23c-1.9,1.79-3.92,3.49-6.01,5.08
		c-0.7,0.54-1.41,1.05-2.12,1.57c-0.27,0.19-0.54,0.38-0.81,0.57c-0.38,0.26-0.76,0.52-1.14,0.78c-1.77-0.04-3.55-0.07-5.32-0.11
		c-3.58-0.07-7.16-0.14-10.74-0.21c-9.97-0.2-19.95-0.39-29.92-0.59c-8.91-0.17-17.84-0.35-26.75-0.53
		c-5.27-0.11-10.53-0.21-15.79-0.31c-2.54-0.05-5.07-0.1-7.61-0.15c-0.8-0.02-1.59-0.03-2.39-0.05c-0.26,0-0.52-0.01-0.78-0.02
		c-0.19,0-0.38-0.01-0.57-0.01c-0.13,0-0.27,0-0.4-0.01c-0.1,0-0.19,0-0.29-0.01c-0.41-0.01-0.82-0.02-1.24-0.02
		c-0.53-0.01-1.05-0.02-1.58-0.03c-0.36-0.29-0.71-0.57-1.07-0.87c-0.34-0.28-0.67-0.55-1-0.84c-0.24-0.21-0.48-0.41-0.73-0.62
		c-0.26-0.22-0.51-0.45-0.76-0.67c-0.02-0.02-0.05-0.04-0.07-0.06c-2.99-2.68-5.78-5.57-8.3-8.69v0c-0.07-0.08-0.13-0.16-0.19-0.24
		c-0.2-0.24-0.39-0.48-0.58-0.73c-0.79-1.01-1.55-2.04-2.28-3.09c-0.03-1.9-0.05-3.8-0.08-5.71c-0.18-12.18-0.36-24.36-0.53-36.54
		c-0.2-13.24-0.39-26.48-0.58-39.73c-0.06-4.01-0.12-8.02-0.18-12.04c-0.02,0.02-0.04,0.04-0.06,0.06v-2.3
		c0.01,0.01,0.02,0.02,0.03,0.03c-0.01-0.61-0.02-1.23-0.03-1.84v-1.89h-0.03c-0.02-0.94-0.03-1.88-0.04-2.82
		c-8.92-0.04-17.84-0.07-26.77-0.1c-16.43-0.06-32.87-0.12-49.3-0.18c-16.29-0.06-32.57-0.11-48.86-0.18
		c-17.48-0.07-34.95-0.13-52.43-0.19c-15.76-0.06-31.52-0.11-47.28-0.17c-16.72-0.07-33.44-0.12-50.16-0.18
		c-12.45-0.05-24.9-0.08-37.34-0.14c-5.46-0.03-10.93-0.04-16.4-0.1c0,5.38,0,10.76,0,16.14c0,16.93,0,33.85,0,50.78
		c0,8.35,0,16.69,0,25.03c0,2.12,0,4.25,0,6.38c-0.2,0.33-0.4,0.66-0.6,0.99c-0.16,0.27-0.33,0.53-0.5,0.79
		c-0.05,0.08-0.1,0.16-0.15,0.23c-0.14,0.23-0.29,0.45-0.44,0.68c-0.18,0.28-0.36,0.55-0.54,0.82c-0.23,0.36-0.47,0.71-0.71,1.05
		c-0.02,0.03-0.04,0.07-0.07,0.1c-4.93,7.18-10.93,13.77-17.32,19.36c-0.25,0.22-0.5,0.44-0.75,0.66c-0.38,0.32-0.76,0.64-1.14,0.96
		c-0.56,0.47-1.13,0.93-1.7,1.39c-1.64,0.01-3.29,0.02-4.93,0.02c-8.6,0.04-17.2,0.07-25.8,0.11c-11.93,0.05-23.85,0.11-35.78,0.16
		c-5.96,0.02-11.92,0.05-17.88,0.08c-1.66,0-3.32,0.01-4.98,0.02c-0.42-0.31-0.84-0.63-1.25-0.95c-0.19-0.14-0.38-0.29-0.56-0.43
		c-0.35-0.27-0.7-0.55-1.04-0.83c-0.31-0.25-0.62-0.51-0.94-0.76c-5.31-4.34-10.27-9.2-14.91-14.32c-0.41-0.46-0.83-0.91-1.23-1.38
		c-0.61-0.68-1.22-1.38-1.82-2.07c-0.02-1.59-0.05-3.18-0.07-4.78c-0.05-3.4-0.1-6.8-0.15-10.2c-3.19,0.06-6.38,0.11-9.57,0.17
		c-6.47,0.11-12.95,0.22-19.42,0.34c-5.87,0.11-11.73,0.19-17.6,0.3c-0.92,0.01-1.84,0.03-2.76,0.05c-0.79,0.02-1.58,0.03-2.37,0.04
		c-0.32-0.23-0.64-0.47-0.96-0.71c-0.32-0.23-0.63-0.48-0.94-0.72s-0.62-0.48-0.93-0.73c-0.31-0.25-0.62-0.5-0.93-0.75
		c-5.41-4.46-10.26-9.65-14.5-15.3c-0.69-0.92-1.37-1.85-2.02-2.79c-0.14-0.21-0.29-0.41-0.43-0.62c-0.18-0.27-0.37-0.54-0.55-0.8
		c0-1.8,0-3.61,0-5.41c0-4.93,0-9.85,0-14.77c0-15.25,0-30.49,0-45.73c0-1.06,0-2.12,0-3.18c-2.42,0.04-4.84,0.06-7.27,0.09
		c-4.71,0.06-9.43,0.12-14.14,0.18c-1.46,0.02-2.93,0.04-4.4,0.05c-1.67,0.02-3.34,0.04-5.02,0.06c-0.82-0.66-1.62-1.35-2.38-2.08
		c-0.18-0.17-0.36-0.34-0.53-0.52c-0.12-0.12-0.24-0.24-0.36-0.36c-2.48-2.52-4.58-5.39-6.13-8.57c-1.62-3.31-2.59-6.93-2.9-10.59
		c-0.41-4.71,0.29-9.46,1.67-13.96c1.33-4.32,3.33-8.41,5.69-12.25c0.98-1.61,2.04-3.16,3.16-4.68c0.19-0.26,0.38-0.51,0.57-0.77
		s0.38-0.51,0.58-0.76c0.2-0.25,0.39-0.5,0.59-0.75c0.2-0.25,0.39-0.5,0.6-0.75c0.05,0,0.11,0,0.15,0c0.03,0,0.05,0,0.09,0
		s0.06,0,0.09,0c0.01,0,0.02,0,0.03,0c0.04,0,0.07,0,0.11,0c0.02,0,0.03,0,0.04,0s0.03,0,0.04,0c0.05,0,0.1,0,0.14,0c0,0,0,0,0.01,0
		s0,0,0.01,0s0,0,0.01,0c0.05,0,0.1,0,0.15,0c0.04,0,0.09,0,0.13,0l0.04,0c0.04,0,0.09,0,0.12,0c0,0,0,0,0.01,0
		c0.06,0,0.13,0,0.14,0c0.72-0.01,1.44-0.02,2.14-0.03c0.05,0,0.11,0,0.17,0c0.04,0,0.07,0,0.11,0c0.01,0,0.02,0,0.02,0
		c0.05,0,0.11,0,0.17,0c0.02,0,0.03,0,0.05,0c0.04,0,0.08,0,0.12,0c0.12,0,0.25,0,0.29,0c0.04,0,0.07,0,0.11,0c0.06,0,0.12,0,0.18,0
		c0.11,0,0.21,0,0.28,0c0.19,0,0.38,0,0.54,0c0.5-0.01,1-0.02,1.42-0.02c0.09,0,0.17,0,0.25,0c0.05,0,0.11-0.01,0.16-0.01
		c0.05,0,0.11,0,0.16,0c0.03,0,0.06,0,0.09,0c0.02,0,0.04,0,0.05,0c0,0,0,0,0,0c0.02,0,0.05,0,0.08,0c0.05,0,0.11,0,0.16,0
		c0.02,0,0.04,0,0.06,0c0.18,0,0.36,0,0.51,0c0.2,0,0.39-0.01,0.59-0.01c0,0,0.01,0,0.02,0s0.01,0,0.02,0c0.17,0,0.33-0.01,0.5-0.01
		c0.16,0,0.32,0,0.44,0c0.05,0,0.1,0,0.15,0c0.02,0,0.04,0,0.04,0c0.01,0,0.03,0,0.04,0c0.01,0,0.01,0,0.02,0
		c0.21,0,0.41-0.01,0.59-0.01c0.04,0,0.08,0,0.12,0c0.03,0,0.05,0,0.08,0c0.05,0,0.11,0,0.14,0c0.05,0,0.1,0,0.15,0
		c0.01,0,0.03,0,0.04,0c0,0,0.01,0,0.01,0h0.06c0.06,0,0.12,0,0.18,0c0.02,0,0.04,0,0.06,0c0.05,0,0.09,0,0.11,0
		c0.07,0,0.13,0,0.2,0c0.07-0.01,0.15-0.01,0.23,0c0.07,0,0.15,0,0.19,0c0.56-0.01,1.12-0.01,1.48-0.02c0.29,0,0.58,0,0.66-0.01
		c0.11,0,0.21,0,0.22,0c0.29,0,0.57-0.01,0.65-0.01c0.3,0,0.6-0.01,0.84-0.01c0.52-0.01,1.04-0.02,1.55-0.02h0.02
		c0.02,0,0.03,0,0.05,0c0.01,0,0.02,0,0.03,0h0.13c0.09,0,0.19,0,0.28,0c0.1,0,0.21,0,0.32,0c0.05,0,0.11,0,0.16,0
		c0.07-0.01,0.14-0.01,0.21,0c0,0,0.01,0,0.01,0h0c0.02,0,0.03,0,0.04,0c0.09,0,0.18,0,0.26,0c0.05,0,0.09,0,0.14,0l0.05,0
		c0.06,0,0.12,0,0.18,0c0.01,0,0.01,0,0.02,0c0,0,0.01,0,0.01,0h0.07c0.07,0,0.14,0,0.2,0s0.14,0,0.21,0c0.07,0,0.14,0,0.2,0
		c0.02,0,0.03,0,0.05,0c0.14-0.01,0.28-0.01,0.35-0.01c0.1,0,0.2,0,0.3,0c0.04,0,0.08,0,0.12,0c0,0,0.01,0,0.02,0
		c0.06-0.01,0.13-0.01,0.16,0c0.02,0,0.03,0,0.05,0c0.07,0,0.13,0,0.19,0c0.11-0.01,0.23-0.01,0.34-0.01c0.2,0,0.39,0,0.49,0
		c0.05,0,0.09,0,0.14,0c0.05,0,0.11,0,0.16,0c-0.05,0-0.1,0-0.15,0c0.09,0,0.19,0,0.28,0c0.31-0.01,0.63-0.04,0.94-0.01
		c0.05,0,0.09,0,0.14,0c-0.06,0-0.12,0-0.18,0c0.13,0,0.25,0,0.26,0c0.13,0,0.25,0,0.38,0c0.11-0.02,0.22-0.02,0.34-0.02
		c0.04,0,0.09,0,0.13,0c0.13-0.01,0.27-0.01,0.4,0c0.04,0,0.07,0,0.1,0c0,0,0.01,0,0.02,0c0.06,0,0.12,0,0.15,0
		c0.16,0,0.34-0.02,0.5-0.01c0.13-0.02,0.27-0.01,0.4,0h0.01c0.12,0,0.23,0,0.31,0c0.05,0,0.09,0,0.14,0c0.02,0,0.04,0,0.06,0
		c0.04,0,0.08,0,0.09,0c0.06,0,0.13,0,0.19,0l0.05,0c0.04,0,0.08,0,0.12,0c0.09,0,0.18,0,0.19,0c0.04,0,0.08,0,0.12,0h0
		c0.15-0.01,0.3-0.02,0.45-0.01c0.14,0,0.29,0,0.4,0c0.21,0,0.42,0,0.6-0.01c0.1,0,0.2,0,0.3,0c0.15-0.01,0.3-0.01,0.45-0.01
		c0.1,0,0.2,0,0.29,0c0-9.43,0-18.87,0-28.3c0-11.62,0-23.23,0-34.85c0-0.59,0-1.18,0-1.77c0-1.3,0-2.61,0-3.91
		c0.26-0.42,0.52-0.84,0.79-1.25c0.22-0.34,0.45-0.69,0.67-1.03c0.23-0.34,0.46-0.68,0.69-1.02c0.05-0.07,0.09-0.14,0.14-0.2
		c0.23-0.34,0.46-0.67,0.7-1c1.99-2.79,4.14-5.42,6.44-7.93c0.36-0.29,0.72-0.59,1.06-0.91c0.65-0.62,1.24-1.3,1.75-2.04
		c1.33-1.33,2.69-2.62,4.09-3.88c0.83-0.74,1.66-1.47,2.52-2.19c0.32-0.28,0.66-0.55,0.98-0.82c1.58-0.01,3.17-0.02,4.75-0.02
		c4.03-0.02,8.06-0.04,12.09-0.06c6.31-0.04,12.62-0.07,18.93-0.1c5.61-0.03,11.22-0.05,16.83-0.09c0-1.33,0-2.66,0.01-3.99
		c0-2.7,0.01-5.4,0.02-8.11c0-1.33,0-2.65,0.01-3.98c0.99-0.84,1.98-1.68,2.98-2.5c0,0,0.01,0,0.01-0.01v0
		c2.91-2.39,5.89-4.72,8.94-6.92c0.2-0.14,0.4-0.29,0.61-0.43c0.24-0.17,0.49-0.34,0.73-0.52c1.06-0.74,2.12-1.47,3.2-2.18
		c0,0,0,0,0,0c0.47-0.01,0.95-0.02,1.43-0.04c0.5-0.02,1-0.03,1.51-0.04c0.99-0.03,1.98-0.05,2.96-0.09
		c6.71-0.19,13.43-0.38,20.14-0.57c9.3-0.27,18.59-0.53,27.89-0.8c10.48-0.3,20.95-0.6,31.43-0.89c1.07-0.03,2.15-0.06,3.22-0.09
		c0.86-0.02,1.72-0.05,2.59-0.07c0.48,0.29,0.96,0.58,1.45,0.88c0.15,0.09,0.3,0.18,0.46,0.28c0.34,0.21,0.68,0.42,1.02,0.64
		c0.55,0.35,1.11,0.71,1.65,1.07c7.19,4.73,13.84,10.3,19.7,16.57c0.28,0.32,0.56,0.64,0.83,0.96c0.18,0.2,0.35,0.41,0.52,0.61
		c0.13,0.15,0.26,0.3,0.39,0.46c0.14,0.17,0.29,0.34,0.43,0.52c0.15,0.18,0.3,0.37,0.45,0.55c0.16,0.2,0.32,0.39,0.48,0.59
		c0.25,0.32,0.5,0.64,0.75,0.96c0,1.69,0,3.38,0,5.06c0,1.76,0,3.52,0,5.27c0,9.04,0,18.09,0,27.13c0,11.53,0,23.06,0,34.59
		c0,6.29,0,12.57,0,18.86c2.42-0.02,4.83-0.04,7.25-0.04c4.49,0,8.99,0.04,13.48,0.07c10.41,0.07,20.81,0.18,31.22,0.27
		c12.87,0.12,25.75,0.23,38.62,0.36c14.59,0.13,29.18,0.27,43.78,0.4c15.5,0.14,31.01,0.29,46.52,0.43
		c16.41,0.15,32.81,0.3,49.21,0.45c14.93,0.13,29.86,0.27,44.79,0.41c15.86,0.14,31.71,0.29,47.56,0.44
		c1.74,0.02,3.48,0.03,5.21,0.05c-0.18-12.04-0.35-24.09-0.53-36.13c-0.17-12.02-0.35-24.05-0.52-36.07
		c-0.07-4.92-0.14-9.83-0.21-14.74c-0.03-1.71-0.05-3.41-0.07-5.12c0,0,0,0,0-0.01c0.38-0.54,0.76-1.07,1.15-1.59
		c0.35-0.48,0.71-0.96,1.07-1.44c0.17-0.23,0.35-0.47,0.52-0.7c0.07-0.09,0.13-0.17,0.2-0.25v0c0.72-0.95,1.46-1.89,2.2-2.82
		c5.64-7.43,12.31-13.8,19.56-19.48c0.22-0.17,0.44-0.34,0.66-0.52c1.07-0.83,2.16-1.64,3.25-2.45c1.68,0.02,3.37,0.03,5.05,0.04
		c3.21,0.03,6.42,0.06,9.63,0.09c8.31,0.07,16.62,0.14,24.94,0.21c8.38,0.07,16.75,0.15,25.13,0.22c3.48,0.03,6.96,0.06,10.44,0.09
		c2.11,0.02,4.21,0.04,6.32,0.05c0,0,0,0,0.01,0c0.12,0.06,0.24,0.12,0.36,0.19c0.31,0.16,0.62,0.32,0.92,0.48
		c0.07,0.04,0.13,0.07,0.2,0.11c0.43,0.23,0.85,0.46,1.27,0.7c0.45,0.25,0.91,0.51,1.36,0.78c0.45,0.26,0.9,0.53,1.35,0.8
		c5.94,3.58,11.46,7.77,15.72,11.39c0.73,0.61,1.45,1.23,2.17,1.84c0.14,0.12,0.28,0.24,0.42,0.36c0.43,0.37,0.86,0.74,1.29,1.11
		c0.43,0.37,0.86,0.75,1.28,1.12c0,1.34-0.01,2.69-0.01,4.04c-0.01,2.67-0.02,5.35-0.02,8.02c0,0.57,0,1.13,0,1.7
		c4.69-0.02,9.38-0.03,14.07-0.05c7.08-0.03,14.16-0.05,21.23-0.07c3.55-0.01,7.1-0.02,10.65-0.04c1.88-0.01,3.76-0.01,5.64-0.02
		c0.24,0.16,0.48,0.32,0.71,0.49c0.17,0.12,0.34,0.24,0.52,0.36c0.28,0.2,0.56,0.4,0.84,0.61c0.35,0.26,0.7,0.52,1.05,0.78
		c0.31,0.23,0.61,0.46,0.92,0.7c0.02,0.01,0.04,0.03,0.06,0.04c4.79,3.73,9.23,7.99,13.32,12.57c1,1.12,1.99,2.27,2.95,3.42
		c-0.01,1.57-0.02,3.13-0.03,4.7l0,0c-0.04,6.17-0.09,12.34-0.14,18.5c-0.1,12.23-0.2,24.46-0.3,36.69
		c-0.04,4.54-0.07,9.07-0.11,13.6c1.6-0.05,3.19-0.11,4.79-0.14c4.02-0.09,8.05-0.13,12.07-0.18c3.79-0.05,7.57-0.09,11.35-0.13
		c0.05,0,0.11,0,0.16,0c1.28-0.02,2.57-0.03,3.85-0.04c0.21,0.25,0.42,0.5,0.63,0.76c0.17,0.21,0.33,0.41,0.49,0.62
		c0.04,0.05,0.08,0.09,0.12,0.14c0.13,0.17,0.26,0.34,0.39,0.52c0.23,0.3,0.45,0.61,0.66,0.91c1.61,2.29,2.98,4.75,4.09,7.32
		C914.74,496.28,915.83,500.95,916.16,505.66z"/>
</g>
</svg>
