<?xml version="1.0" encoding="utf-8"?>
<!-- Generator: Adobe Adobe Illustrator 24.2.0, SVG Export Plug-In . SVG Version: 6.00 Build 0)  -->
<svg version="1.1" xmlns="http://www.w3.org/2000/svg" xmlns:xlink="http://www.w3.org/1999/xlink" x="0px" y="0px" width="1000px"
	 height="1000px" viewBox="0 0 1000 1000" style="enable-background:new 0 0 1000 1000;" xml:space="preserve">
<style type="text/css">
	.st0{fill:#FFFFFF;}
</style>
<g id="Vector_layer_3_">
	<path d="M626.15,446.87c0-0.04,0-0.08,0-0.13c-1.05,0.04-2.33-0.38-2.23-1.66c0.05-0.79,0.78-1.45,1.59-1.38
		c1.7,0.15,3.39,0.26,5.09,0.36c2.55,0.37,4.98-0.56,7.52-0.68c7.17-0.13,14.33-0.84,21.5-0.73c1.81-0.16,3.53,1.46,1.82,2.95
		c-1.16,0.67-2.61,0.19-3.88,0.21c-2.38-0.22-4.74,0.1-7.1,0.36c-4.14,0.51-8.28,0.99-12.45,1.06c-3.16,0.02-6.28-0.11-9.39,0.55
		c-0.41,0.04-0.8,0.23-1.21,0.26C626.75,448.05,626.19,447.52,626.15,446.87z"/>
</g>
<g id="Vector_layer_2_">
	<path class="st0" d="M229.7,529.04c0.01-0.11,0.02-0.21,0.04-0.32c-0.16,0.11-0.32,0.23-0.48,0.36
		C229.4,529.06,229.55,529.05,229.7,529.04z M442.8,797.65c0.59-2.66-1.18-3.68-3.27-4.65c-3.13-0.67-6.37-0.37-9.56,0.2
		c-1.89,0.34-3.77,0.77-5.61,1.14c1.36-1.31,2.75-2.6,4.11-3.9c1.97-1.89,3.9-3.82,5.62-5.92c4.87-5.52,4.51-13.69-0.77-18.77
		c-7.04-6.73-16.76-9.14-25.76-12.04c-3.41-1.05-6.77-2.25-10.09-3.54c-0.26-0.1-0.52-0.2-0.78-0.31c-0.45-0.17-0.89-0.35-1.34-0.54
		c-0.57-0.23-1.15-0.46-1.72-0.7c0.69-0.26,1.39-0.52,2.09-0.77c0.61-0.22,1.21-0.44,1.83-0.65c0.09-0.03,0.18-0.06,0.27-0.09
		c5.61-1.95,11.31-3.65,16.84-5.5c1.95-0.68,3.68-1.62,5.34-2.68c-0.1,0-0.21,0-0.31,0c-6.61-0.3-6.05-3.75-6.86-8.98
		c-1.13-8.13-6.91-14.43-13.03-19.41c-7.44-6.09-15.91-11.27-22.63-18.15c-0.02-0.02-0.03-0.03-0.04-0.05
		c-0.15-0.15-0.29-0.3-0.43-0.45c-0.18-0.19-0.36-0.38-0.54-0.57c-0.23-0.25-0.46-0.5-0.68-0.75c-0.23-0.25-0.45-0.5-0.66-0.76
		c0.23-0.07,0.47-0.13,0.7-0.19c0.16-0.04,0.32-0.08,0.48-0.12c0.46-0.12,0.92-0.22,1.38-0.31c0.28-0.06,0.56-0.11,0.84-0.16
		c23.45-4.21,41.58,17.52,56.79-10.2c-2.14-29.24-1.86-58.71,4.25-87.44c3.58-16.58,9.86-32.36,15.29-48.39
		c-7.63-3.22-15.56-5.68-23.85-6.76c-17-2.48-34.11-5-51.27-5.71c-19.32-0.69-38.62,0.68-57.94,0.59
		c-10.78-0.01-21.84-1.07-32.54-1.5c-10.27-0.22-20.62-0.02-30.94,0.44c-1.05,0.05-2.1,0.1-3.14,0.15
		c-0.49,0.02-0.98,0.05-1.46,0.07c-1.02,0.05-2.04,0.11-3.06,0.16c-0.14,0.01-0.29,0.02-0.43,0.02c-3.65,0.21-7.29,0.44-10.91,0.7
		c-2.2,0.23-4.41,0.45-6.61,0.67c-0.02,0-0.04,0-0.06,0.01c-0.81,0.08-1.62,0.16-2.43,0.23c-0.2,0.02-0.39,0.04-0.59,0.06
		c-1.53,0.14-3.07,0.29-4.6,0.43c-1.52,1.18-3.04,2.38-4.54,3.58c-23.23,19.25-46.84,38.02-71.46,55.47
		c-8.59,6.26-17.02,12.73-25.45,19.2c-13.38,9.95-26.35,21.39-31.95,37.51c-2.98,8.27-2.8,17.26-2.27,25.82
		c0.67,11.52,2.84,22.85,5.85,33.95c0.76,3,1.56,5.99,2.29,9c4.31-1.78,8.43-3.96,10.8-8.09c7.71-15.27-1.21-39.43-4.65-55.45
		c-0.85-3.31-1.72-6.62-2.44-9.97c-0.11-0.5-0.21-1.01-0.32-1.52c-0.05-0.27-0.11-0.55-0.16-0.83c0-0.01,0-0.02-0.01-0.03
		c-0.05-0.27-0.1-0.53-0.15-0.8h0c0.14,0.01,0.29,0.02,0.43,0.04c0.14,0.02,0.29,0.04,0.43,0.06c0.14,0.02,0.28,0.05,0.42,0.08
		c0.12,0.02,0.24,0.05,0.36,0.08c0.13,0.04,0.26,0.07,0.39,0.11c0.09,0.02,0.18,0.05,0.26,0.08c0.31,0.1,0.61,0.21,0.91,0.33
		c1.13,0.44,2.21,1.02,3.25,1.58c4.03,2.24,7.73,4.98,11.39,7.77c2.71,2.02,5.47,4.16,8.86,4.79c0.76,0.13,1.51,0.21,2.26,0.25
		c0.02,0,0.04,0,0.06,0c0.16,0.01,0.32,0.01,0.48,0.02c0.86,0.02,1.71-0.01,2.55-0.08c0.3,0.97,0.6,1.95,0.89,2.92
		c0.41,1.34,0.81,2.68,1.22,4.02c3.68,11.99,6.77,24.24,8.17,36.72c0.81,10.21,0.7,20.55-0.79,30.7c-0.1,0.63-0.21,1.26-0.33,1.89h0
		c-0.05,0.25-0.09,0.49-0.14,0.74c-0.11,0.57-0.23,1.13-0.35,1.69c-0.1,0.45-0.2,0.89-0.3,1.33c-0.48,0.23-0.96,0.46-1.46,0.66
		c-0.15,0.06-0.31,0.13-0.46,0.19c-0.11,0.05-0.22,0.09-0.34,0.13c-0.16,0.07-0.32,0.12-0.48,0.18c-0.24,0.09-0.48,0.18-0.73,0.26
		c-2.82,0.95-5.77,1.45-8.79,1.35c-5.27-0.05-9.8-2.97-13.83-6.08c-0.8-0.58-1.61-1.21-2.43-1.82c-3.83,3.84-7.26,8.08-10.24,12.64
		c-3.45,5.44-7.33,10.98-8.92,17.22c-0.15,1.5-0.25,3-0.3,4.5c10.61,14.24,22,28.05,37.77,36.58c8.8,4.62,18.48,6.91,28.06,9.27
		c13.71,3.45,27.43,6.85,40.94,11.03c15.95,4.68,31.43,11.34,47.81,14.36c3.04,0.51,6.06,0.75,9.07,0.81
		c1.57-1.59,3.38-2.91,5.52-3.73c7.3-2.68,15.24-2.86,22.93-3.04c20.48,0.03,41.1-0.16,61.45,2.43c0.33,0.04,0.66,0.09,1,0.13
		c0.6,0.08,1.2,0.16,1.8,0.24c0.8,0.12,1.6,0.24,2.4,0.36c-0.56,0.29-1.12,0.58-1.68,0.87c-0.91,0.46-1.82,0.93-2.74,1.39
		c-0.09,0.04-0.17,0.09-0.26,0.13c-3.32,1.64-6.66,3.3-9.98,4.99c8.45,1.34,16.77,3.56,24.86,6.38c7.22,2.46,14.35,5.19,21.61,7.54
		c4.42,1.41,8.88,2.95,13.57,3.05c13.84,0.5,28.31-8.95,39.88-15.73c5.3-3.26,10.36-6.84,15.29-10.62
		c-4.36,0.01-7.36,2.27-16.53,7.04c-7.71,3.68-16.2,6.11-24.79,6.11c-0.99-0.02-1.98-0.07-2.96-0.13c-0.53-0.03-1.06-0.07-1.59-0.11
		c-0.7-0.05-1.39-0.11-2.09-0.16c0.25-0.31,0.51-0.62,0.77-0.93c0.27-0.33,0.55-0.66,0.84-0.98c0.22-0.25,0.45-0.51,0.67-0.76
		c0.04-0.04,0.08-0.09,0.12-0.13c7.8-8.67,17.45-15.49,25.6-23.82C436.93,811.73,441.27,805.05,442.8,797.65z M455.57,174.23
		c0.82-0.76,1.64-1.52,2.47-2.27c-1.91-0.5-3.89-0.95-5.96-1.36c-0.23,0.17-0.46,0.34-0.69,0.52
		C452.77,172.18,454.16,173.22,455.57,174.23z M485.33,401.82c0.64-3.61,1.95-7.04,3.74-10.22c-4.03,2.56-8.38,4.6-12.96,5.75
		c-0.02,0.01-0.05,0.02-0.07,0.02c-0.22,0.05-0.44,0.11-0.66,0.16c-0.02,0.01-0.05,0.01-0.07,0.02c-0.24,0.05-0.48,0.11-0.72,0.15
		c-0.25,0.05-0.51,0.1-0.77,0.15c-0.26,0.05-0.52,0.09-0.77,0.13c-2.25,0.36-4.54,0.49-6.88,0.36c-11.6-0.66-23.09-2.57-34.63-3.97
		c-0.08-0.01-0.16-0.02-0.24-0.03c-0.5-0.06-1.01-0.12-1.51-0.18c-0.58-0.07-1.17-0.13-1.75-0.2c-0.11-0.02-0.23-0.03-0.34-0.04
		c-10.08-1.18-20.23-2.19-30.39-2.71c-0.59-0.03-1.18-0.06-1.77-0.08c-0.56-0.03-1.12-0.05-1.68-0.07
		c-10.88-0.43-21.77-0.27-32.6,0.89c-15.55,1.54-30.39,5.79-45.99,6.39c-12.66,0.6-25.29-3.48-37.86-1.05
		c-8.43,1.28-16.91,2.24-25.43,2.59c-0.23,5.22-0.02,10.46-0.75,15.65c-0.93,6.56-3,12.9-5.41,19.05
		c-2.04,5.07-4.1,10.22-4.07,15.73c0.05,14.75-2.21,26.12-1.92,38.14c2.19,2.68,4.68,5.07,7.72,6.7c0.24,0.13,0.48,0.26,0.73,0.38
		c0.12,0.05,0.23,0.11,0.35,0.16c0.11,0.05,0.22,0.11,0.33,0.16c0.47,0.21,0.95,0.41,1.43,0.61c3.12,1.3,6.36,2.43,8.99,4.64
		c0.73,0.62,1.36,1.28,1.9,1.95c0.12,0.14,0.23,0.29,0.34,0.44c0.06,0.07,0.11,0.15,0.16,0.22c0.21,0.3,0.41,0.62,0.59,0.93
		c0.12,0.21,0.24,0.42,0.34,0.63c0.06,0.11,0.11,0.22,0.16,0.34c1.3,2.8,1.45,5.9,0.91,9.11c10.32,1.35,20.93,3.24,22.36,3.18
		c20.36,2.78,40.89,3.23,61.38,1.94c16.45-0.45,32.85-1.39,49.25-2.71c22.38-2.14,42.05,4.31,62.11,12.41
		c5.68-18.16,10.67-36.52,16.94-54.49c3.48-10.49,6.93-21.12,7.79-32.19c0.88-9.54,0.97-19.13,0.91-28.71
		C484.53,410.03,484.62,405.89,485.33,401.82z M504.78,168.09c-0.22-5.71-2.98-10.16-6.93-13.64c-4.14,0.75-8.25,1.56-12.2,2.83
		c-8.23,2.84-15.16,7.8-21.65,13.39c6.36,2.07,12.03,4.68,17.64,8.54c0.21,0.14,0.43,0.29,0.64,0.45c0.43,0.3,0.86,0.61,1.29,0.93
		c0.16,0.12,0.32,0.23,0.47,0.36c0.05,0.04,0.11,0.08,0.17,0.12c0.37,0.28,0.73,0.56,1.1,0.85
		C491.71,177.18,498.26,172.66,504.78,168.09z M510.51,129.72c1.75-10,4.1-20.59,0.13-30.37c-2.54-6.98-10.54-11.95-17.8-9.2
		c-2.76,1.22-4.62,3.71-6.4,5.96c-3.03,3.84-4.64,8.99-2.83,13.67c0.88,2.34,2.85,3.96,4.79,5.42c3.82,2.95,7.77,4.96,11.88,7.25
		C503.87,124.59,507.38,126.94,510.51,129.72z M537.4,116.29c0.07-1.67-0.57-3.84-2.57-3.85c-2.75,0.81-4.37,3.81-5.52,6.25
		c-2.21,5.61-1.88,13.95,4.5,16.51c0.34,0.14,0.66,0.32,0.88,0.6C535.74,129.33,536.98,122.79,537.4,116.29z M561.24,333.8
		c0.15-0.07,0.29-0.13,0.44-0.2c-2.06-2.95-3.86-6.26-5.45-9.74c-12.87-27.49-22.34-56.8-26.84-86.84
		c-1.37-10.61-3.62-21.07-6.29-31.42c-3.55,8.82-7.09,17.64-10.81,26.4c-7.59,17.96-17.44,34.84-25.27,52.7
		c-9.9,21.95-14.94,45.91-26.77,67c-4.98,8.39-10.09,16.73-15.56,24.82c3.06-0.72,6.09-1.58,9.09-2.57c2.29-0.91,4.5-1.96,6.66-3.12
		l0,0c0.26-0.14,0.52-0.28,0.77-0.42c0.26-0.14,0.51-0.29,0.77-0.43c0.29-0.16,0.58-0.33,0.87-0.5c0.27-0.16,0.53-0.31,0.79-0.47
		l0,0c4.09-2.46,7.95-5.29,11.67-8.31c0.48-0.39,0.97-0.79,1.45-1.19c0.05-0.04,0.11-0.09,0.16-0.13c0.47-0.39,0.94-0.79,1.4-1.18
		c-0.03,1.51-0.06,2.65-0.06,3.1c-0.02,0.3-0.03,0.61-0.04,0.91c-0.02,0.44-0.03,0.89-0.04,1.33c14.55-7.31,31.36-8.61,46.58-14.19
		C537.27,345.04,549.14,339.12,561.24,333.8z M652.85,445.08c-5.66-2.09-11.92-2.36-17.52,0.12c0.05,0.02,0.09,0.03,0.14,0.04
		c2.34,0.79,5.14,1.14,7.53,1.06C646.32,446.23,649.59,445.66,652.85,445.08z M653.87,110c-5.84-1-11.98-0.2-17.77,0.79
		c-7.31,1.93-13.93,5.67-20.43,9.36c-2.23,1.32-4.46,2.65-6.72,3.91c-1.29,0.72-2.59,1.43-3.9,2.13
		C616.38,123.82,650.86,122.75,653.87,110z M658.36,434.12c13.37-4.99,14.27-13.41,13.12-26.29c-1.18-13.53-4.8-26.87-9.84-39.43
		c-3.88-9.06-8.36-17.91-13.25-26.48c-0.39-0.05-0.79-0.09-1.19-0.12c-13.88-1.49-21.3-11-36.32-5.95
		c-7.92,2.51-14.65,7.58-22.77,9.38c-8.36,1.66-14.85-0.38-20.03-4.57c-4.92,2.23-10.15,5.1-16.73,8.61
		c-7.77,4.02-16.04,7.04-24.48,9.28c-12.58,3.09-25.52,4.11-37.73,8.46c-3.71,1.27-7.41,2.6-11,4.17c0,1.15,0,2.3-0.01,3.45
		c6.57,2.02,13.25,3.72,19.65,6.27c0.08,0.03,0.16,0.07,0.25,0.1c0.33,0.13,0.66,0.26,0.99,0.39c0.68,0.27,1.37,0.56,2.05,0.85
		c0.23,0.1,0.46,0.2,0.68,0.3c0.23,0.1,0.46,0.2,0.68,0.3c13,5.9,24.54,15.49,23.73,31.21c-0.01,6.81-0.87,13.73,2.01,20.08
		c5.09,10.81,16.45,17.34,28.04,18.75c16.21,1.59,32.14-1.84,48.16-3.71c7.96-9.38,24.6-9.27,35.84-10.57
		C646.5,437.94,652.68,436.44,658.36,434.12z M825.71,706.34c15.29-16.86,23.75-38.47,21.05-61.29
		c-3.32-23.84-13.88-46.5-28.23-65.69c-6.02-8.14-13.46-14.88-21-21.55h0c0,0,0,0,0,0c-0.86-0.76-1.71-1.51-2.56-2.27
		c-3.04-0.6-5.93,0.42-8.84-0.63c-1.27-0.58-2.45-1.32-3.59-2.14c-22.39-11.65-32.85-22.53-47.23-43.89c-1-1.48-2.04-2.95-3.1-4.39
		c-3-2.23-6-4.45-8.27-7.41c0-0.01-0.01-0.02-0.02-0.02c-1.49-2.08-3.05-4.3-3.91-6.75c-1.67-1.66-3.39-3.25-5.18-4.79
		c-15.27-12.81-35.8-25.53-56.48-28.78h0c-0.38-0.06-0.77-0.12-1.15-0.17c-0.07-0.01-0.14-0.02-0.21-0.03
		c-0.36-0.05-0.73-0.1-1.09-0.14c-0.39-0.05-0.77-0.09-1.16-0.13c-0.05-0.01-0.11-0.01-0.16-0.02c-0.3-0.03-0.59-0.06-0.89-0.08
		c-0.14-0.02-0.29-0.03-0.44-0.04c-0.2-0.02-0.4-0.03-0.61-0.04c-0.21-0.02-0.41-0.03-0.62-0.04c-0.17-0.01-0.34-0.02-0.52-0.02
		c-0.25-0.02-0.49-0.03-0.73-0.04c-0.02,0-0.05,0-0.07,0c-0.36-0.02-0.71-0.03-1.07-0.03c-0.61-0.01-1.22-0.01-1.84,0
		c-0.18,0-0.35,0-0.52,0.01c-9.25,0.2-18.33,2.66-26.79,8.22c-0.29,0.19-0.57,0.38-0.85,0.57c-0.96,0.66-1.9,1.33-2.83,2.03
		c-0.54,0.02-1.09,0.03-1.63,0.05c-0.52,0.02-1.04,0.05-1.56,0.07c-0.05,0-0.1,0-0.15,0.01c-0.32,0.02-0.63,0.04-0.95,0.06
		c-0.26,0.02-0.52,0.03-0.78,0.05c-0.47,0.03-0.95,0.07-1.41,0.11c-19.25,1.57-38.41,4.15-57.54,6.75
		c-13.41,2.04-27.2,4.66-39.3,10.82c-4.85,2.51-9.54,5.43-13.82,8.8c0.08,7.8,0.48,15.6-0.04,23.39
		c-0.46,9.12-2.42,18.11-5.79,26.57c-0.38,0.93-0.76,1.86-1.17,2.78c-1.28,2.9-2.73,5.73-4.35,8.48c-0.36,0.63-0.72,1.25-1.09,1.87
		c0,0.01-0.01,0.02-0.02,0.03c-0.19,0.33-0.39,0.66-0.6,0.98c-0.31,0.52-0.63,1.02-0.95,1.53c-2.69,4.22-5.6,8.3-8.28,12.53
		c-4.19,6.55-7.33,13.4-10.46,20.43c-3.19,7.12-6.01,14.52-7.56,22.17c-3.59,21.2-4.44,42.77-5.26,64.22
		c-0.44,12.59-0.92,25.31,1.26,37.71c2.47,12.82,8.57,24.89,15.25,35.96c12.51,19.79,35.99,27.45,56.94,35.03
		c0.18,0.07,0.36,0.13,0.54,0.2c0.77,0.27,1.55,0.55,2.32,0.83c15.81,5.66,31.5,11.68,47.74,16.01c15.24,4.3,30.84,7.19,46.45,9.82
		c31.71,5.68,48.15,6.56,79.61-1.83c11.67-2.86,24.12-3.94,35.09-9.04c11.52-5.87,21-15.02,29.76-24.36
		c-2.72,0.59-5.42,1.25-8.07,1.95c-3,0.86-5.99,1.73-9,2.55c-0.38,0.11-0.75,0.21-1.12,0.31c-0.71,0.19-1.42,0.38-2.14,0.57
		c0.26-1.14,0.61-2.26,1.04-3.36c1.29-3.3,3.28-6.34,5.6-9c2.51-2.55,4.5-4.27,5.73-5.86c-5.6,0.26-11.04,1.71-16.01,5.04
		c-6.62,4.25-13.76,8.2-20.98,11.22c-3.08,1.09-6.13,3.31-9.51,2.97c-1.52-0.3-2.78-1.75-2.71-3.32c0.01-0.9,0.5-1.76,1.03-2.46
		c1.59-2.05,3.32-3.99,5.01-5.97c1.02-1.2,2.06-2.4,3.1-3.59c-7.41,0.95-14.79,2.23-22.11,3.69c-7.46,1.35-14.85,3.54-22.43,4
		c-2.46-0.21-2.7-3.14-0.48-4.02c3.68-1.79,7.74-3.2,11.33-4.78c2.03-1.04,4.59-1.72,6.11-3.42c-2.46-1.89-8.41-1.46-7.96-5.75
		c0.06-5.71,30.08-9.87,22-14.32c-7.02-4.27-26.52-2.71-27.14-13.23c1.43-6.9,11.75-7.14,17.4-7.54c4.91-0.28,9.81-0.62,14.68-1.29
		c5.69-0.66,11.89-2.46,14.83-7.78c2.43-4.6,3.08-10.16,1.65-15.17c-2.2-7.39-7.8-12.98-13.65-17.66
		c-7.77-5.36-17.69-6.12-26.85-6.73c-6.66-0.18-13.43-0.74-19.31-4.16c-3.66-1.38-7.72-0.86-11.43,0.05
		c-2.26,0.38-11.91,4.47-19.92,7.02c-0.13,0.04-0.26,0.08-0.39,0.12c-0.43,0.14-0.86,0.27-1.28,0.39c-0.27,0.08-0.54,0.16-0.8,0.24
		c-0.27,0.08-0.54,0.15-0.8,0.22c-0.17-0.15-0.34-0.3-0.5-0.44c-0.17-0.14-0.34-0.29-0.5-0.42c-0.18-0.15-0.36-0.3-0.54-0.45
		c-0.29-0.23-0.58-0.46-0.87-0.68c-0.21-0.16-0.41-0.31-0.62-0.46c-15.35-11.14-20.6,4.73-46.71,4.06
		c-8.9-0.38-17.92-0.84-26.82-0.83c-0.65,0-1.3,0-1.95,0.01c-0.42-0.01-0.84-0.02-1.27-0.03c0.29-0.84,0.62-1.66,0.99-2.42
		c0.03-0.07,0.06-0.13,0.09-0.2c4.1-9.57,11.97-16.84,19.43-23.83c7.43-6.54,18.13-7.58,27.63-7.07c6.73,0.38,13.44,0.85,20.18,0.89
		c4.52,0.17,15.18,0.75,11.12-6.71c-3.08-3.87-7.95-5.6-12.34-7.5c-3.82-1.61-7.71-3.09-11.36-5.1c-5.39-3.09-10.57-6.55-15.7-10.06
		c-5.83-3.4-11.23-7.41-16.49-11.61c-0.26-0.2-0.51-0.41-0.77-0.62c-0.39-0.32-0.79-0.63-1.18-0.95c-0.39-0.32-0.78-0.64-1.17-0.96
		c0.59-0.1,1.18-0.18,1.77-0.24c7.88-0.83,15.98,1.75,23.1,5.13c3.32,1.52,6.55,3.21,9.87,4.73c1.54,0.55,3.1,1.82,4.79,1.5
		c2.39-1.77-1.82-9.39-2.86-11.62c-3.09-4.43-6.38-8.78-9.76-13.04c-1.02-1.29-2.05-2.57-3.09-3.84c0.48,0.1,0.96,0.21,1.44,0.32
		c0.39,0.09,0.79,0.18,1.18,0.27c0.02,0,0.05,0.01,0.07,0.02c0.3,0.07,0.59,0.14,0.89,0.22h0c2.63,0.65,5.23,1.41,7.79,2.29
		c7.69,4.14,13.39,11.95,21.93,14.59c1.57,0.31,4.7,2.12,5.52,0.03c1.69-4.08,1.23-8.57,1.33-12.86c-0.1-7.04-0.39-14.11,0.7-21.02
		c0.05-0.31,0.1-0.61,0.15-0.92c0.07-0.41,0.15-0.82,0.23-1.23c0.09-0.59,0.35-2.14,0.74-3.86c0.32,0.84,0.62,1.69,0.91,2.54
		c0.07,0.22,0.15,0.43,0.22,0.65c0.05,0.15,0.1,0.3,0.15,0.46c2.57,7.91,4.1,16.25,6.51,24.18c1.68,5.33,4.03,10.32,6.86,15.12
		c2.88,4.93,6.02,9.85,10.35,13.64c2.79,2.5,6.52,4.7,7.49-0.64c-0.05-2.47-0.64-4.91-0.52-7.4c0.08-5.39,1.86-10.8,4.23-15.57
		c0.88-1.74,1.77-3.47,2.69-5.2c0.36-0.68,0.71-1.36,1.08-2.03c0.36-0.68,0.72-1.35,1.09-2.03c0.2,0.75,0.38,1.5,0.54,2.25
		c0.05,0.25,0.11,0.5,0.16,0.75c1.33,6.7,1.38,13.59,2.56,20.36c2.9-0.67,4.93-3.23,7.29-4.89c3.41-2.91,7.02-5.55,10.8-7.94v0
		c0.26-0.17,0.52-0.33,0.78-0.49c0.85-0.53,1.7-1.04,2.57-1.54c-0.09,0.64-0.18,1.28-0.28,1.92c-1.05,7.05-2.29,14.08-1.92,21.15
		c2.01,6.9,8.39-2.48,10.66-4.71c3.05-3.58,6.04-7.21,9.4-10.5c2.48-2.35,5.88-5.43,9.52-7.29c0.22-0.11,0.44-0.22,0.66-0.32
		c0.09-0.04,0.18-0.09,0.28-0.12c0.21-0.09,0.42-0.18,0.63-0.27c0.1-0.04,0.21-0.08,0.31-0.12c0.1-0.04,0.19-0.07,0.29-0.11
		c0.12-0.04,0.23-0.08,0.34-0.12c0.08,0.43,0.15,0.87,0.21,1.31c0.04,0.22,0.07,0.44,0.1,0.66c0.02,0.16,0.05,0.33,0.07,0.5
		c0.36,2.69,0.54,5.41,0.64,8.06c0.09,3.14,0.27,6.46-1.56,9.11c-0.56,4.78,4.62,5.84,8.07,7.28c0.36,0.15,0.72,0.27,1.08,0.38
		c0.16,0.05,0.31,0.09,0.47,0.12c0.15,0.04,0.3,0.07,0.46,0.11c0.21,0.04,0.41,0.08,0.62,0.12c0.17,0.03,0.34,0.05,0.5,0.07
		c0.14,0.02,0.27,0.04,0.41,0.05c0.08,0.01,0.16,0.02,0.24,0.02c0.14,0.02,0.28,0.03,0.42,0.04c-0.49,0.99-1.05,1.94-1.7,2.84
		c-0.64,0.89-1.37,1.74-2.16,2.53c-4.39,4.79-9.29,9.08-13.82,13.73c7.39-0.44,14.82-0.66,22.21-0.41c0.38,0.01,0.75,0.02,1.12,0.04
		c0.39,0.02,0.78,0.03,1.16,0.05c0.44,0.02,0.87,0.04,1.3,0.07c-0.31,0.45-0.63,0.89-0.95,1.34c-0.08,0.11-0.16,0.22-0.25,0.34
		c-0.08,0.12-0.17,0.23-0.26,0.35c-0.22,0.29-0.45,0.59-0.68,0.89c-1.51,2.01-2.99,4.3-1.43,6.64c2.71,3.38,7.32,4.32,11.03,6.24
		c4.7,2.08,9.33,4.32,14.06,6.34c4.62,1.95,9.23,3.9,13.86,5.82c1.31,0.54,2.62,1.09,3.93,1.62c-0.41,0.18-0.75,0.32-1,0.43
		c-0.59,0.24-1.18,0.47-1.77,0.68c-0.18,0.07-0.36,0.13-0.54,0.2c-0.26,0.09-0.52,0.18-0.78,0.27c-4.95,1.64-10.21,2.55-15.18,3.39
		c-7.56,1.37-15.2,2.29-22.89,2.64c7.59,5.26,15.62,9.96,21.96,16.78c6.25,6.6,11.58,13.95,17.86,20.48c3,3.24,6.15,6.32,9.44,9.25
		C811.17,720.8,819.07,714.07,825.71,706.34z M873.78,645.55c4.12,27.48-1.26,46.25-21.12,65.9c-7.91,8.71-10.88,20.86-11.39,32.3
		c-0.2,4.6-0.09,9.2,0.12,13.79l0,0c0.04,0.73,0.07,1.47,0.11,2.21c0.04,0.73,0.08,1.47,0.12,2.2c-0.94,1.13-1.87,2.27-2.82,3.39
		c-4.75,5.69-9.61,11.28-15.02,16.37c-15.16,14.73-35.67,21.01-54.86,28.64c-35.31,14.91-65.62,30.37-105.41,27.92
		c-24.91-1.39-49.53-5.75-74.32-8.39c-16.13-1.77-32.31-3.64-48.1-7.49c-5.93-1.34-11.72-3.08-17.41-5.09
		c-2.33,8.46-5.28,16.74-9.55,24.45c-8.71,18.86-23.68,24.46-41.17,31.59c-0.94,0.38-1.89,0.77-2.84,1.16
		c-0.21,0.09-0.42,0.18-0.63,0.26c-7.48,3.16-15.1,6.06-23,7.98c-13.59,3.25-27.63,3.75-41.52,4.45c-13.18,0.56-26.36,2.03-39.55,1
		c-11.02-0.6-21.89-2.92-32.62-5.02c-17.54-3.44-35.37-5-53.17-6.29c-44.55-4.2-92.35-4.62-131.56-28.8
		c-11.13-7.23-20.29-16.99-29.39-26.54c-15.13-15.5-27.88-33.11-42.87-48.7c-0.86-0.9-1.73-1.79-2.61-2.67
		c0.16-1.26,0.32-2.52,0.48-3.79c0.84-6.77,1.61-13.54,2.27-20.32c0.01-0.13,0.03-0.27,0.04-0.4c0.09-0.92,0.18-1.84,0.26-2.76
		c0-0.02,0-0.05,0.01-0.07c0.26-2.78,0.5-5.56,0.72-8.34c0.17-1.54,0.33-3.07,0.48-4.61c0.07-0.62,0.12-1.25,0.18-1.88
		c0.04-0.45,0.09-0.9,0.12-1.35c0.02-0.18,0.03-0.35,0.05-0.53c0.73-8.22,1.14-16.44,0.9-24.7c-0.1-16.06-1.2-32.13-0.5-48.18
		c0.36-17.21,10.2-32.6,23.4-43.08c15.24-12.67,32.28-22.93,48.27-34.6c10.07-7.21,19.97-14.67,30.07-21.85
		c9.06-6.45,18.32-12.83,27.21-19.61c1.14-0.87,2.28-1.75,3.41-2.64c0.3-0.24,0.61-0.48,0.91-0.72c0,0,0,0,0.01,0
		c2.98-2.36,5.91-4.78,8.77-7.27c3.57-3.18,6.99-6.5,10.32-9.91c0.07-11.25-0.5-22.51-0.39-33.76v0c0.01-0.84,0.02-1.69,0.04-2.54
		c0-0.36,0.01-0.73,0.02-1.09c0.02-0.7,0.04-1.4,0.06-2.11v0c0.1-2.93,0.25-5.86,0.5-8.79c0.49-9.73-0.05-19.48,0.4-29.21
		c0.66-10.25,2.79-20.51,7.07-29.88c0.62-1.38,1.27-2.73,1.96-4.08c0.36-0.71,0.73-1.42,1.12-2.12c0.08-0.15,0.16-0.3,0.25-0.45
		c0.04-0.07,0.07-0.14,0.12-0.21v0v0c0.18-0.89,0.73-1.93,0.99-2.52c2.51-4.34,6.23-7.98,10.27-10.98c0,0,0.01-0.01,0.02-0.01
		c0.1-0.09,0.2-0.18,0.29-0.26c4.57-4.04,9.47-7.66,15.07-10.29c0.07-0.04,0.14-0.07,0.2-0.1c1.12-0.55,2.25-1.07,3.4-1.57
		c0.48-0.21,0.96-0.41,1.45-0.61c0.67-0.28,1.34-0.55,2.02-0.82c0.53,0.02,1.05,0.04,1.58,0.06c0.38,0.02,0.75,0.03,1.13,0.05
		c0.2,0.01,0.4,0.02,0.6,0.03c0.36,0.02,0.73,0.04,1.1,0.06c0.53,0.03,1.06,0.06,1.59,0.09c0.66,0.04,1.33,0.08,2,0.13
		c5.28,0.36,10.55,0.86,15.82,1.23c18.94,1.18,37.73,0.79,56.67,1.27c10.45,0.19,20.89,0.59,31.29,1.58
		c4.66,0.33,9.34,1.01,14.02,1.64c5.05-9.63,9.43-19.63,14.25-29.4c14.55-31.64,33.33-61.41,45.57-94.07
		c7.21-20.42,11.23-41.53,16.84-62.36c-0.48-0.31-0.97-0.62-1.46-0.93h0c-0.83-0.52-1.66-1.05-2.51-1.58
		c-5.97-3.75-12.24-7.64-18.14-11.8c-0.5-0.35-0.99-0.7-1.48-1.05c-0.34-0.25-0.67-0.49-1.01-0.73c-1.5-1.09-2.96-2.21-4.38-3.34
		c0,0-0.01,0-0.01-0.01c-0.4-0.32-0.8-0.64-1.19-0.96c-0.4-0.32-0.79-0.66-1.18-0.98c-0.88-0.74-1.74-1.5-2.57-2.26h0c0,0,0,0,0,0
		c-0.4-0.36-0.79-0.73-1.18-1.1c-0.26-0.24-0.51-0.48-0.76-0.73c-0.39-0.39-0.79-0.77-1.17-1.16c-0.29-0.3-0.58-0.6-0.86-0.9l0,0
		c0.85,0.17,1.68,0.34,2.5,0.51c0.41,0.08,0.82,0.16,1.22,0.25c0.41,0.08,0.8,0.16,1.2,0.25c0.14,0.03,0.29,0.06,0.43,0.09
		c2.12,0.44,4.15,0.87,6.11,1.31c7.37-5.44,15.19-10.27,23.82-13.46c4.68-1.66,9.39-3.23,14.05-4.93c-2.72-1.31-5.54-2.38-8.23-3.24
		c-3.49-1.37-9.8-3.27-16.54-5.52c-1.22-0.41-2.45-0.82-3.68-1.25c-0.83-0.29-1.67-0.58-2.5-0.88c1.62-0.23,3.25-0.47,4.87-0.7
		c0.5-0.07,0.99-0.14,1.48-0.21c4.38-0.6,8.76-1.1,13.17-1.29c7.45-0.46,14.91-0.31,22.35,0.12c-5.96-4.4-12.59-7.86-18.3-12.6
		c-19.31-15.5-15.64-32.61,7.52-40.38c21.07-5.32,32.78,6.41,46.48,20.27c3.79,3.78,7.69,7.46,11.71,10.99
		c4.23,3.56,9.39,7.84,5.19,13.59c-2.27,4.29-5.73,7.67-9.74,10.29c6.29,0.96,12.79,0.85,18.8-1.18c8.37-3.1,15.77-7.67,23.41-12.1
		c11.45-6.48,20.99-15.84,33.67-19.84c14.46-4.77,31.69-3.44,46.6,1.73c1.09,0.38,2.18,0.78,3.24,1.2c0.09,0.81,0.12,1.62,0.09,2.43
		c-0.09,2.8-0.88,5.56-2.41,7.9c-6.94,9.09-19.5,9.84-29.93,11.64c-7.41,1.12-14.65,2.55-21.73,4.92
		c-7.33,2.26-14.35,5.24-21.7,7.39c-12.4,3.68-26.15,4.79-36.79,12.77c-3.77,2.61-8.68,5.69-7.61,10.99
		c0.72,5.32,3.24,10.16,4.67,15.3c1.98,7.8,3.72,15.66,5.89,23.42c1.12,4.96,2.03,9.91,3.39,14.77c2.32,8.35,5.09,16.57,8.1,24.67
		c1.67,5.89,3.65,11.69,5.56,17.5c5.19,18.63,8.08,38.15,16.89,55.56c0.78,1.42,1.48,2.64,2.68,3.63c2.12,1.22,4.77,1.63,7.09,1.77
		c15.75,0.56,28.32-11.41,43.73-12.8c4.22-0.35,9.08,0.52,13.9,2.09c0.13,0.04,0.27,0.09,0.4,0.13c0.34,0.11,0.68,0.23,1.02,0.35
		c0.17,0.06,0.34,0.12,0.51,0.18s0.34,0.12,0.5,0.19c0.05,0.02,0.09,0.03,0.14,0.05c0.13,0.05,0.27,0.1,0.39,0.15
		c0.33,0.12,0.65,0.25,0.98,0.38c0.14,0.3,0.27,0.61,0.4,0.91c0.13,0.3,0.27,0.61,0.39,0.91c4.84,11.25,8.38,23.06,10.27,35.16
		c0.05,0.29,0.09,0.57,0.13,0.86c0.05,0.34,0.11,0.68,0.15,1.01c0.03,0.21,0.06,0.42,0.09,0.63c0.04,0.27,0.07,0.55,0.11,0.82
		c0.04,0.28,0.07,0.55,0.1,0.82c1.46,12.34,0.59,24.95,3.86,37.04c3.65,13.17,10.11,25.46,17.84,36.67
		C710,446.55,723.82,456.7,727,479.13c5.11,4.27,10.25,8.5,15.29,12.83c34.43,28.91,71.49,55.4,100.27,90.3
		C857.89,600.55,870.94,621.47,873.78,645.55z"/>
	<path class="st0" d="M455.41,174.75c-1.27-0.34-2.4-1.09-3.67-1.46c-0.73-0.15-1.23-1.02-0.91-1.76c0.3-0.69,1.16-0.93,1.77-0.61
		c0.86,0.38,1.79,0.49,2.68,0.74c0.56-0.33,1.32-0.27,1.8,0.2C458.69,173.16,457.33,175.4,455.41,174.75z"/>
	<path class="st0" d="M457.07,173.7c-2.1-1.01-5.07-0.53-6.74-2.36c-0.43-0.72,0.04-1.7,0.84-1.89c0.63-0.12,1.28,0.09,1.9,0.2
		c1.02,0.19,1.99,0.59,3.03,0.46c0.75,0.18,1.42,0.61,2.16,0.84C460.06,171.74,458.87,174.45,457.07,173.7z"/>
	<path class="st0" d="M456.37,173.83c-1.45-0.69-1.21-2.85,0.53-2.71c0.92,0.21,1.84,1.11,1.4,2.1
		C457.99,173.93,457.03,174.29,456.37,173.83z"/>
	<path d="M439.54,793c2.08,0.96,3.85,1.99,3.27,4.65c-1.54,7.4-5.87,14.08-10.8,19.71c-8.15,8.33-17.8,15.15-25.6,23.82
		c-0.04,0.04-0.08,0.09-0.12,0.13c-0.22,0.25-0.45,0.51-0.67,0.76c-0.29,0.32-0.57,0.65-0.84,0.98c-0.26,0.31-0.52,0.62-0.77,0.93
		c0.7,0.06,1.39,0.11,2.09,0.16c0.53,0.04,1.06,0.07,1.59,0.11c0.98,0.06,1.97,0.11,2.96,0.13c8.59,0,17.07-2.43,24.79-6.11
		c9.17-4.78,12.16-7.04,16.53-7.04c-4.92,3.77-9.99,7.36-15.29,10.62c-11.56,6.78-26.04,16.22-39.88,15.73
		c-4.69-0.1-9.15-1.64-13.57-3.05c-7.26-2.35-14.39-5.07-21.61-7.54c-8.09-2.82-16.4-5.04-24.86-6.38c3.32-1.69,6.66-3.34,9.98-4.99
		c0.09-0.04,0.17-0.09,0.26-0.13c0.92-0.46,1.83-0.92,2.74-1.39c0.56-0.29,1.12-0.57,1.68-0.87c-0.8-0.12-1.6-0.24-2.4-0.36
		c-0.6-0.08-1.2-0.16-1.8-0.24c-0.33-0.04-0.66-0.09-1-0.13c-20.35-2.59-40.96-2.4-61.45-2.43c-7.69,0.18-15.63,0.36-22.93,3.04
		c-2.14,0.82-3.96,2.14-5.52,3.73c-3.01-0.05-6.03-0.3-9.07-0.81c-16.38-3.02-31.86-9.68-47.81-14.36
		c-13.51-4.18-27.23-7.57-40.94-11.03c-9.58-2.37-19.27-4.65-28.06-9.27c-15.77-8.54-27.16-22.34-37.77-36.58
		c0.05-1.5,0.15-3,0.3-4.5c1.59-6.25,5.47-11.79,8.92-17.22c2.98-4.57,6.41-8.8,10.24-12.64c0.82,0.61,1.62,1.24,2.43,1.82
		c4.04,3.11,8.56,6.03,13.83,6.08c3.02,0.1,5.98-0.4,8.79-1.35c0.24-0.08,0.49-0.17,0.73-0.26c0.16-0.06,0.32-0.12,0.48-0.18
		c0.11-0.04,0.23-0.09,0.34-0.13c0.15-0.06,0.31-0.12,0.46-0.19c0.49-0.21,0.98-0.43,1.46-0.66c0.11-0.45,0.21-0.89,0.3-1.33
		c0.12-0.56,0.24-1.12,0.35-1.69c0.05-0.25,0.1-0.49,0.14-0.74h0c0.12-0.63,0.23-1.26,0.33-1.89c1.49-10.14,1.6-20.48,0.79-30.7
		c-1.39-12.48-4.49-24.73-8.17-36.72c-0.41-1.34-0.82-2.68-1.22-4.02c-0.29-0.98-0.59-1.95-0.89-2.92c-0.85,0.07-1.7,0.1-2.55,0.08
		c-0.16,0-0.32-0.01-0.48-0.02c-0.02,0-0.04,0-0.06,0c-0.75-0.04-1.5-0.12-2.26-0.25c-3.39-0.62-6.15-2.77-8.86-4.79
		c-3.66-2.79-7.36-5.53-11.39-7.77c-1.04-0.57-2.12-1.14-3.25-1.58c-0.3-0.12-0.61-0.23-0.91-0.33c-0.09-0.03-0.18-0.05-0.26-0.08
		c-0.13-0.04-0.26-0.07-0.39-0.11c-0.12-0.03-0.24-0.06-0.36-0.08c-0.14-0.03-0.28-0.06-0.42-0.08c-0.14-0.03-0.29-0.05-0.43-0.06
		c-0.14-0.02-0.28-0.03-0.43-0.04h0c0.05,0.27,0.1,0.53,0.15,0.8c0,0.01,0.01,0.02,0.01,0.03c0.05,0.28,0.11,0.55,0.16,0.83
		c0.1,0.51,0.21,1.01,0.32,1.52c0.72,3.34,1.59,6.66,2.44,9.97c3.45,16.02,12.36,40.18,4.65,55.45c-2.37,4.12-6.49,6.3-10.8,8.09
		c-0.73-3.01-1.53-6-2.29-9c-3.01-11.11-5.18-22.44-5.85-33.95c-0.53-8.56-0.71-17.55,2.27-25.82c5.6-16.11,18.58-27.56,31.95-37.51
		c8.43-6.47,16.86-12.95,25.45-19.2c24.62-17.45,48.23-36.22,71.46-55.47c1.5-1.21,3.02-2.4,4.54-3.58c1.53-0.14,3.07-0.29,4.6-0.43
		c0.2-0.02,0.39-0.04,0.59-0.06c0.81-0.07,1.62-0.16,2.43-0.23c0.02,0,0.04,0,0.06-0.01c2.2-0.21,4.41-0.44,6.61-0.67
		c3.62-0.26,7.27-0.49,10.91-0.7c0.14-0.01,0.29-0.02,0.43-0.02c1.02-0.06,2.04-0.11,3.06-0.16c0.49-0.03,0.98-0.05,1.46-0.07
		c1.05-0.05,2.09-0.11,3.14-0.15c10.32-0.46,20.67-0.66,30.94-0.44c10.69,0.43,21.75,1.49,32.54,1.5
		c19.32,0.09,38.62-1.28,57.94-0.59c17.17,0.71,34.28,3.23,51.27,5.71c8.29,1.08,16.21,3.54,23.85,6.76
		c-5.43,16.03-11.71,31.81-15.29,48.39c-6.11,28.73-6.39,58.2-4.25,87.44c-15.2,27.72-33.33,5.99-56.79,10.2
		c-0.28,0.05-0.56,0.1-0.84,0.16c-0.46,0.09-0.91,0.2-1.38,0.31c-0.16,0.04-0.32,0.08-0.48,0.12c-0.23,0.06-0.46,0.12-0.7,0.19
		c0.22,0.26,0.44,0.51,0.66,0.76c0.22,0.25,0.45,0.5,0.68,0.75c0.18,0.19,0.36,0.38,0.54,0.57c0.14,0.15,0.29,0.3,0.43,0.45
		c0.01,0.02,0.03,0.03,0.04,0.05c6.72,6.89,15.19,12.07,22.63,18.15c6.12,4.98,11.9,11.29,13.03,19.41
		c0.81,5.24,0.25,8.68,6.86,8.98c0.1,0,0.21,0,0.31,0c-1.66,1.05-3.38,2-5.34,2.68c-5.53,1.86-11.23,3.55-16.84,5.5
		c-0.09,0.03-0.18,0.06-0.27,0.09c-0.61,0.21-1.22,0.43-1.83,0.65c-0.7,0.25-1.4,0.51-2.09,0.77c0.57,0.23,1.14,0.47,1.72,0.7
		c0.45,0.18,0.89,0.36,1.34,0.54c0.26,0.11,0.52,0.21,0.78,0.31c3.32,1.29,6.68,2.49,10.09,3.54c9,2.89,18.72,5.3,25.76,12.04
		c5.28,5.08,5.64,13.24,0.77,18.77c-1.73,2.1-3.65,4.03-5.62,5.92c-1.36,1.3-2.75,2.59-4.11,3.9c1.83-0.38,3.71-0.81,5.61-1.14
		C433.16,792.64,436.41,792.33,439.54,793z"/>
	<path d="M489.07,391.6c-1.79,3.18-3.1,6.61-3.74,10.22c-0.71,4.07-0.8,8.21-0.82,12.34c0.05,9.57-0.03,19.17-0.91,28.71
		c-0.86,11.07-4.31,21.7-7.79,32.19c-6.27,17.96-11.26,36.33-16.94,54.49c-20.06-8.09-39.73-14.55-62.11-12.41
		c-16.4,1.32-32.8,2.27-49.25,2.71c-20.48,1.29-41.02,0.84-61.38-1.94c-1.43,0.05-12.04-1.84-22.36-3.18
		c0.54-3.21,0.38-6.31-0.91-9.11c-0.05-0.11-0.11-0.22-0.16-0.34c-0.11-0.21-0.22-0.42-0.34-0.63c-0.18-0.31-0.38-0.62-0.59-0.93
		c-0.05-0.07-0.1-0.15-0.16-0.22c-0.11-0.15-0.22-0.3-0.34-0.44c-0.54-0.68-1.18-1.33-1.9-1.95c-2.62-2.21-5.86-3.33-8.99-4.64
		c-0.48-0.2-0.95-0.4-1.43-0.61c-0.11-0.05-0.22-0.1-0.33-0.16c-0.12-0.05-0.23-0.11-0.35-0.16c-0.25-0.12-0.49-0.24-0.73-0.38
		c-3.05-1.63-5.53-4.02-7.72-6.7c-0.29-12.02,1.97-23.4,1.92-38.14c-0.02-5.5,2.04-10.66,4.07-15.73
		c2.41-6.15,4.48-12.49,5.41-19.05c0.73-5.19,0.52-10.43,0.75-15.65c8.51-0.35,16.99-1.32,25.43-2.59
		c12.57-2.43,25.2,1.65,37.86,1.05c15.59-0.6,30.43-4.85,45.99-6.39c10.84-1.16,21.72-1.32,32.6-0.89c0.56,0.02,1.12,0.05,1.68,0.07
		c0.59,0.02,1.18,0.05,1.77,0.08c10.16,0.52,20.31,1.53,30.39,2.71c0.11,0.01,0.23,0.02,0.34,0.04c0.59,0.07,1.17,0.13,1.75,0.2
		c0.5,0.06,1.01,0.12,1.51,0.18c0.08,0.01,0.16,0.02,0.24,0.03c11.54,1.4,23.03,3.31,34.63,3.97c2.33,0.13,4.62,0,6.88-0.36
		c0.26-0.04,0.52-0.09,0.77-0.13c0.25-0.05,0.51-0.09,0.77-0.15c0.24-0.05,0.48-0.1,0.72-0.15c0.02-0.01,0.05-0.01,0.07-0.02
		c0.22-0.05,0.44-0.1,0.66-0.16c0.03,0,0.05-0.01,0.07-0.02C480.69,396.2,485.04,394.16,489.07,391.6z"/>
	<path d="M846.75,645.05c2.7,22.82-5.76,44.43-21.05,61.29c-6.63,7.73-14.54,14.46-22.82,20.59c-3.29-2.93-6.44-6.01-9.44-9.25
		c-6.28-6.53-11.61-13.89-17.86-20.48c-6.34-6.82-14.38-11.52-21.96-16.78c7.68-0.34,15.32-1.27,22.89-2.64
		c4.96-0.84,10.22-1.75,15.18-3.39c0.26-0.09,0.52-0.18,0.78-0.27c0.18-0.06,0.36-0.13,0.54-0.2c0.6-0.21,1.19-0.44,1.77-0.68
		c0.24-0.11,0.58-0.25,1-0.43c-1.31-0.54-2.62-1.08-3.93-1.62c-4.63-1.92-9.24-3.88-13.86-5.82c-4.73-2.02-9.36-4.26-14.06-6.34
		c-3.71-1.92-8.32-2.87-11.03-6.24c-1.57-2.34-0.09-4.63,1.43-6.64c0.23-0.3,0.46-0.61,0.68-0.89c0.09-0.12,0.18-0.23,0.26-0.35
		c0.09-0.11,0.17-0.23,0.25-0.34c0.31-0.45,0.63-0.89,0.95-1.34c-0.43-0.02-0.87-0.05-1.3-0.07c-0.39-0.02-0.78-0.03-1.16-0.05
		c-0.38-0.02-0.75-0.03-1.12-0.04c-7.39-0.24-14.82-0.03-22.21,0.41c4.54-4.65,9.43-8.94,13.82-13.73c0.8-0.79,1.52-1.63,2.16-2.53
		c0.64-0.9,1.21-1.85,1.7-2.84c-0.14-0.01-0.28-0.02-0.42-0.04c-0.08,0-0.16-0.01-0.24-0.02c-0.14-0.01-0.27-0.03-0.41-0.05
		c-0.17-0.02-0.34-0.04-0.5-0.07c-0.21-0.04-0.41-0.07-0.62-0.12c-0.15-0.03-0.3-0.07-0.46-0.11c-0.16-0.04-0.31-0.08-0.47-0.12
		c-0.36-0.11-0.72-0.23-1.08-0.38c-3.45-1.45-8.62-2.5-8.07-7.28c1.83-2.64,1.65-5.97,1.56-9.11c-0.1-2.66-0.28-5.37-0.64-8.06
		c-0.02-0.16-0.04-0.33-0.07-0.5c-0.03-0.22-0.06-0.44-0.1-0.66c-0.07-0.44-0.14-0.88-0.21-1.31c-0.11,0.04-0.23,0.07-0.34,0.12
		c-0.1,0.03-0.19,0.07-0.29,0.11c-0.11,0.04-0.21,0.08-0.31,0.12c-0.21,0.08-0.42,0.17-0.63,0.27c-0.09,0.04-0.19,0.08-0.28,0.12
		c-0.22,0.1-0.44,0.21-0.66,0.32c-3.64,1.86-7.04,4.94-9.52,7.29c-3.36,3.3-6.36,6.93-9.4,10.5c-2.27,2.23-8.66,11.62-10.66,4.71
		c-0.37-7.07,0.87-14.1,1.92-21.15c0.1-0.64,0.19-1.28,0.28-1.92c-0.86,0.5-1.72,1.02-2.57,1.54c-0.26,0.16-0.52,0.32-0.78,0.49v0
		c-3.78,2.39-7.39,5.03-10.8,7.94c-2.36,1.66-4.39,4.22-7.29,4.89c-1.18-6.77-1.23-13.66-2.56-20.36c-0.05-0.25-0.1-0.5-0.16-0.75
		c-0.16-0.75-0.34-1.51-0.54-2.25c-0.36,0.68-0.73,1.35-1.09,2.03c-0.36,0.68-0.72,1.36-1.08,2.03c-0.91,1.73-1.81,3.46-2.69,5.2
		c-2.37,4.77-4.15,10.18-4.23,15.57c-0.12,2.49,0.46,4.93,0.52,7.4c-0.97,5.34-4.7,3.14-7.49,0.64c-4.33-3.79-7.47-8.71-10.35-13.64
		c-2.83-4.8-5.19-9.79-6.86-15.12c-2.41-7.93-3.94-16.27-6.51-24.18c-0.05-0.15-0.1-0.3-0.15-0.46c-0.07-0.22-0.14-0.43-0.22-0.65
		c-0.29-0.85-0.59-1.7-0.91-2.54c-0.39,1.72-0.65,3.26-0.74,3.86c-0.08,0.41-0.16,0.82-0.23,1.23c-0.05,0.31-0.11,0.61-0.15,0.92
		c-1.09,6.91-0.79,13.98-0.7,21.02c-0.1,4.29,0.36,8.78-1.33,12.86c-0.82,2.1-3.95,0.29-5.52-0.03
		c-8.55-2.64-14.25-10.46-21.93-14.59c-2.57-0.88-5.16-1.64-7.79-2.29h0c-0.3-0.08-0.59-0.15-0.89-0.22c-0.02,0-0.05-0.01-0.07-0.02
		c-0.39-0.09-0.79-0.19-1.18-0.27c-0.48-0.11-0.96-0.21-1.44-0.32c1.04,1.27,2.07,2.55,3.09,3.84c3.38,4.26,6.67,8.61,9.76,13.04
		c1.04,2.23,5.25,9.85,2.86,11.62c-1.69,0.32-3.25-0.94-4.79-1.5c-3.32-1.52-6.55-3.21-9.87-4.73c-7.12-3.38-15.23-5.96-23.1-5.13
		c-0.59,0.06-1.18,0.14-1.77,0.24c0.39,0.32,0.78,0.64,1.17,0.96c0.39,0.32,0.79,0.63,1.18,0.95c0.26,0.21,0.51,0.41,0.77,0.62
		c5.25,4.2,10.66,8.21,16.49,11.61c5.13,3.51,10.3,6.97,15.7,10.06c3.64,2.01,7.53,3.49,11.36,5.1c4.39,1.9,9.27,3.63,12.34,7.5
		c4.05,7.46-6.6,6.88-11.12,6.71c-6.73-0.05-13.45-0.51-20.18-0.89c-9.5-0.51-20.2,0.53-27.63,7.07
		c-7.46,6.98-15.33,14.26-19.43,23.83c-0.03,0.07-0.06,0.13-0.09,0.2c-0.36,0.77-0.7,1.58-0.99,2.42c0.42,0.01,0.84,0.02,1.27,0.03
		c0.65,0,1.3-0.01,1.95-0.01c8.9,0,17.92,0.46,26.82,0.83c26.11,0.67,31.36-15.21,46.71-4.06c0.2,0.15,0.41,0.3,0.62,0.46
		c0.29,0.21,0.57,0.44,0.87,0.68c0.18,0.14,0.36,0.29,0.54,0.45c0.16,0.14,0.33,0.28,0.5,0.42c0.17,0.14,0.34,0.29,0.5,0.44
		c0.26-0.07,0.53-0.14,0.8-0.22c0.27-0.08,0.53-0.16,0.8-0.24c0.42-0.12,0.84-0.25,1.28-0.39c0.13-0.04,0.26-0.08,0.39-0.12
		c8-2.55,17.66-6.64,19.92-7.02c3.71-0.92,7.77-1.43,11.43-0.05c5.88,3.42,12.65,3.98,19.31,4.16c9.16,0.6,19.09,1.37,26.85,6.73
		c5.85,4.68,11.45,10.27,13.65,17.66c1.43,5.02,0.78,10.57-1.65,15.17c-2.94,5.32-9.14,7.12-14.83,7.78
		c-4.88,0.66-9.78,1.01-14.68,1.29c-5.65,0.39-15.97,0.64-17.4,7.54c0.62,10.52,20.12,8.96,27.14,13.23
		c8.07,4.45-21.95,8.62-22,14.32c-0.46,4.29,5.49,3.86,7.96,5.75c-1.52,1.7-4.08,2.38-6.11,3.42c-3.59,1.57-7.64,2.99-11.33,4.78
		c-2.22,0.88-1.98,3.8,0.48,4.02c7.58-0.47,14.97-2.65,22.43-4c7.32-1.46,14.69-2.75,22.11-3.69c-1.04,1.2-2.09,2.39-3.1,3.59
		c-1.68,1.98-3.41,3.92-5.01,5.97c-0.53,0.7-1.02,1.56-1.03,2.46c-0.07,1.57,1.19,3.02,2.71,3.32c3.38,0.34,6.43-1.88,9.51-2.97
		c7.21-3.02,14.36-6.97,20.98-11.22c4.96-3.33,10.41-4.79,16.01-5.04c-1.23,1.59-3.22,3.3-5.73,5.86c-2.32,2.66-4.32,5.7-5.6,9
		c-0.43,1.09-0.78,2.21-1.04,3.36c0.71-0.18,1.43-0.38,2.14-0.57c0.38-0.1,0.75-0.2,1.12-0.31c3-0.82,6-1.7,9-2.55
		c2.65-0.7,5.35-1.36,8.07-1.95c-8.76,9.34-18.24,18.49-29.76,24.36c-10.97,5.1-23.42,6.18-35.09,9.04
		c-31.46,8.39-47.91,7.51-79.61,1.83c-15.6-2.63-31.2-5.52-46.45-9.82c-16.24-4.33-31.93-10.35-47.74-16.01
		c-0.77-0.28-1.55-0.55-2.32-0.83c-0.18-0.07-0.36-0.13-0.54-0.2c-20.95-7.58-44.43-15.24-56.94-35.03
		c-6.68-11.07-12.78-23.13-15.25-35.96c-2.18-12.4-1.7-25.12-1.26-37.71c0.82-21.45,1.67-43.02,5.26-64.22
		c1.55-7.65,4.38-15.05,7.56-22.17c3.13-7.03,6.28-13.88,10.46-20.43c2.68-4.23,5.59-8.3,8.28-12.53c0.32-0.51,0.64-1.02,0.95-1.53
		c0.21-0.33,0.41-0.66,0.6-0.98c0.01-0.01,0.02-0.02,0.02-0.03c0.37-0.62,0.74-1.24,1.09-1.87c1.62-2.74,3.07-5.57,4.35-8.48
		c0.41-0.92,0.8-1.84,1.17-2.78c3.37-8.45,5.33-17.45,5.79-26.57c0.52-7.79,0.12-15.59,0.04-23.39c4.28-3.38,8.97-6.3,13.82-8.8
		c12.1-6.16,25.89-8.79,39.3-10.82c19.13-2.59,38.29-5.17,57.54-6.75c0.47-0.04,0.94-0.07,1.41-0.11c0.26-0.02,0.52-0.04,0.78-0.05
		c0.32-0.02,0.63-0.04,0.95-0.06c0.05,0,0.1,0,0.15-0.01c0.52-0.03,1.04-0.05,1.56-0.07c0.54-0.02,1.09-0.04,1.63-0.05
		c0.93-0.7,1.87-1.37,2.83-2.03c0.29-0.2,0.57-0.39,0.85-0.57c8.46-5.56,17.54-8.02,26.79-8.22c0.17-0.01,0.34-0.01,0.52-0.01
		c0.61-0.01,1.22-0.01,1.84,0c0.36,0,0.71,0.02,1.07,0.03c0.02,0,0.04,0,0.07,0c0.24,0.01,0.49,0.02,0.73,0.04
		c0.17,0.01,0.34,0.02,0.52,0.02c0.21,0.01,0.41,0.03,0.62,0.04c0.2,0.01,0.4,0.03,0.61,0.04c0.14,0.01,0.29,0.02,0.44,0.04
		c0.3,0.02,0.6,0.05,0.89,0.08c0.05,0,0.11,0.01,0.16,0.02c0.39,0.04,0.77,0.08,1.16,0.13c0.36,0.04,0.73,0.09,1.09,0.14
		c0.07,0.01,0.14,0.02,0.21,0.03c0.38,0.05,0.77,0.11,1.15,0.17h0c20.67,3.25,41.21,15.97,56.48,28.78
		c1.78,1.54,3.51,3.14,5.18,4.79c0.86,2.45,2.41,4.67,3.91,6.75c0.01,0.01,0.01,0.02,0.02,0.02c2.27,2.95,5.27,5.18,8.27,7.41
		c1.06,1.44,2.09,2.91,3.1,4.39c14.39,21.36,24.85,32.24,47.23,43.89c1.14,0.82,2.32,1.56,3.59,2.14c2.92,1.05,5.8,0.03,8.84,0.63
		c0.85,0.75,1.71,1.51,2.56,2.27c0,0,0,0,0,0h0c7.53,6.66,14.98,13.41,21,21.55C832.88,598.55,843.43,621.21,846.75,645.05z"/>
	<path d="M671.48,407.83c1.15,12.88,0.24,21.3-13.12,26.29c-5.68,2.32-11.86,3.82-18.15,4.5c-11.24,1.29-27.88,1.19-35.84,10.57
		c-16.02,1.87-31.95,5.3-48.16,3.71c-11.58-1.41-22.94-7.94-28.04-18.75c-2.88-6.36-2.02-13.27-2.01-20.08
		c0.81-15.73-10.73-25.31-23.73-31.21c-0.23-0.1-0.45-0.2-0.68-0.3c-0.23-0.1-0.45-0.2-0.68-0.3c-0.68-0.29-1.36-0.58-2.05-0.85
		c-0.33-0.13-0.66-0.26-0.99-0.39c-0.08-0.03-0.16-0.07-0.25-0.1c-6.39-2.55-13.08-4.25-19.65-6.27c0.01-1.15,0.01-2.3,0.01-3.45
		c3.59-1.57,7.29-2.9,11-4.17c12.21-4.35,25.15-5.37,37.73-8.46c8.44-2.24,16.71-5.26,24.48-9.28c6.58-3.51,11.81-6.39,16.73-8.61
		c5.18,4.19,11.67,6.23,20.03,4.57c8.12-1.8,14.86-6.87,22.77-9.38c15.01-5.04,22.44,4.46,36.32,5.95c0.4,0.04,0.8,0.07,1.19,0.12
		c4.88,8.57,9.36,17.43,13.25,26.48C666.68,380.96,670.3,394.3,671.48,407.83z"/>
	<path d="M561.68,333.61c-0.15,0.07-0.29,0.13-0.44,0.2c-12.1,5.32-23.97,11.23-36.48,15.54c-15.22,5.58-32.03,6.88-46.58,14.19
		c0.01-0.44,0.02-0.89,0.04-1.33c0.01-0.3,0.02-0.61,0.04-0.91c0-0.45,0.03-1.59,0.06-3.1c-0.46,0.4-0.93,0.79-1.4,1.18
		c-0.05,0.04-0.11,0.09-0.16,0.13c-0.48,0.4-0.96,0.8-1.45,1.19c-3.72,3.02-7.59,5.85-11.67,8.31l0,0
		c-0.26,0.16-0.52,0.32-0.79,0.47c-0.29,0.17-0.57,0.34-0.87,0.5c-0.25,0.14-0.51,0.29-0.77,0.43c-0.25,0.14-0.51,0.28-0.77,0.42
		l0,0c-2.16,1.16-4.37,2.21-6.66,3.12c-3,0.99-6.03,1.85-9.09,2.57c5.47-8.09,10.58-16.44,15.56-24.82
		c11.83-21.09,16.87-45.05,26.77-67c7.83-17.85,17.67-34.73,25.27-52.7c3.72-8.75,7.25-17.58,10.81-26.4
		c2.67,10.35,4.92,20.8,6.29,31.42c4.5,30.04,13.97,59.35,26.84,86.84C557.82,327.35,559.62,330.66,561.68,333.61z"/>
	<path d="M497.86,154.44c3.95,3.48,6.71,7.94,6.93,13.64c-6.52,4.57-13.07,9.1-19.48,13.82c-0.36-0.29-0.73-0.57-1.1-0.85
		c-0.05-0.04-0.11-0.09-0.17-0.12c-0.16-0.12-0.32-0.24-0.47-0.36c-0.43-0.32-0.86-0.62-1.29-0.93c-0.21-0.16-0.43-0.3-0.64-0.45
		c-5.61-3.86-11.28-6.47-17.64-8.54c6.49-5.59,13.43-10.55,21.65-13.39C489.61,156,493.72,155.2,497.86,154.44z"/>
	<path d="M510.64,99.35c3.96,9.78,1.62,20.37-0.13,30.37c-3.13-2.78-6.64-5.13-10.23-7.27c-4.1-2.29-8.05-4.3-11.88-7.25
		c-1.94-1.46-3.91-3.09-4.79-5.42c-1.81-4.68-0.2-9.83,2.83-13.67c1.78-2.25,3.64-4.74,6.4-5.96
		C500.1,87.4,508.1,92.38,510.64,99.35z"/>
	<path d="M534.84,112.44c2,0.01,2.64,2.18,2.57,3.85c-0.42,6.51-1.66,13.04-2.7,19.51c-0.23-0.27-0.54-0.46-0.88-0.6
		c-6.39-2.56-6.72-10.9-4.5-16.51C530.47,116.25,532.08,113.25,534.84,112.44z"/>
	<path d="M636.1,110.79c5.79-0.99,11.93-1.79,17.77-0.79c-3,12.75-37.49,13.82-48.82,16.19c1.31-0.7,2.61-1.41,3.9-2.13
		c2.26-1.27,4.49-2.59,6.72-3.91C622.16,116.46,628.79,112.72,636.1,110.79z"/>
</g>
</svg>
